<svg width="18" height="18" viewBox="0 0 18 18" fill="none" xmlns="http://www.w3.org/2000/svg">
<path d="M17.1189 13.9146L14.4935 11.2889C13.9706 10.7681 13.1046 10.7839 12.5635 11.3252L11.2408 12.6476C11.1572 12.6016 11.0707 12.5534 10.9798 12.5024C10.1445 12.0396 9.00132 11.4053 7.79835 10.2014C6.59181 8.99502 5.95689 7.85007 5.49267 7.01428C5.44368 6.92573 5.39675 6.84036 5.3504 6.75928L6.23811 5.87289L6.67454 5.43592C7.21652 4.8938 7.23146 4.02806 6.70976 3.50572L4.08437 0.87975C3.56266 0.358141 2.6963 0.373965 2.15432 0.916087L1.4144 1.66026L1.43462 1.68033C1.18651 1.99691 0.979185 2.36204 0.824899 2.75579C0.682678 3.13058 0.594131 3.48824 0.553643 3.84662C0.206978 6.72055 1.52028 9.34711 5.08442 12.9113C10.0111 17.8377 13.9814 17.4655 14.1527 17.4473C14.5257 17.4028 14.8832 17.3136 15.2466 17.1725C15.6369 17.02 16.0018 16.813 16.3182 16.5654L16.3343 16.5798L17.0839 15.8458C17.6248 15.3038 17.6404 14.4377 17.1189 13.9146Z" fill="white"/>
</svg>
