<svg width="154" height="153" viewBox="0 0 154 153" fill="none" xmlns="http://www.w3.org/2000/svg">
<g filter="url(#filter0_d)">
<mask id="path-1-inside-1" fill="white">
<path fill-rule="evenodd" clip-rule="evenodd" d="M84.1633 60.6392C86.8359 55.9622 83.4588 50.1428 78.072 50.1428H74.9291C73.8246 50.1428 72.9291 51.0383 72.9291 52.1428C72.9291 53.2474 73.8246 54.1428 74.9291 54.1428H78.072C80.3875 54.1428 81.8391 56.6442 80.6903 58.6546L67.8577 81.1117L55.0251 58.6546C53.8763 56.6442 55.3279 54.1428 57.6434 54.1428H60.7863C61.8908 54.1428 62.7863 53.2474 62.7863 52.1428C62.7863 51.0383 61.8908 50.1428 60.7863 50.1428H57.6434C52.2566 50.1428 48.8795 55.9622 51.5521 60.6392L65.253 84.6157C65.4209 84.9096 65.6262 85.1607 65.858 85.3689V87.4999C65.858 95.9814 72.7336 102.857 81.2151 102.857C89.2344 102.857 95.818 96.7105 96.5118 88.8716C100.788 87.977 104 84.185 104 79.6429C104 74.4357 99.7787 70.2144 94.5714 70.2144C89.3642 70.2144 85.1429 74.4357 85.1429 79.6429C85.1429 84.1363 88.2861 87.8956 92.4938 88.8418C91.8299 94.4818 87.0335 98.8571 81.2151 98.8571C74.9427 98.8571 69.858 93.7723 69.858 87.4999V85.3684C70.0895 85.1603 70.2946 84.9094 70.4624 84.6157L84.1633 60.6392ZM89.1429 79.6429C89.1429 82.641 91.5733 85.0715 94.5714 85.0715C97.5695 85.0715 100 82.641 100 79.6429C100 76.6448 97.5695 74.2144 94.5714 74.2144C91.5733 74.2144 89.1429 76.6448 89.1429 79.6429Z"/>
</mask>
<path d="M84.1633 60.6392L87.6362 62.6238V62.6238L84.1633 60.6392ZM80.6903 58.6546L77.2173 56.6701L77.2173 56.6701L80.6903 58.6546ZM67.8577 81.1117L71.3307 83.0962L67.8577 89.174L64.3847 83.0962L67.8577 81.1117ZM55.0251 58.6546L51.5521 60.6392V60.6392L55.0251 58.6546ZM51.5521 60.6392L48.0792 62.6238V62.6238L51.5521 60.6392ZM65.253 84.6157L68.7259 82.6311L68.7259 82.6311L65.253 84.6157ZM65.858 85.3689L68.5313 82.3935L69.858 83.5855V85.3689H65.858ZM96.5118 88.8716L92.5274 88.5189L92.789 85.5638L95.6928 84.9564L96.5118 88.8716ZM92.4938 88.8418L93.3714 84.9393L96.8877 85.7301L96.4664 89.3095L92.4938 88.8418ZM69.858 85.3684H65.858V83.5856L67.1839 82.3937L69.858 85.3684ZM70.4624 84.6157L73.9354 86.6002L73.9354 86.6002L70.4624 84.6157ZM78.072 46.1428C86.53 46.1428 91.8326 55.2801 87.6362 62.6238L80.6903 58.6546C81.8391 56.6442 80.3875 54.1428 78.072 54.1428V46.1428ZM74.9291 46.1428H78.072V54.1428H74.9291V46.1428ZM68.9291 52.1428C68.9291 48.8291 71.6154 46.1428 74.9291 46.1428V54.1428C76.0337 54.1428 76.9291 53.2474 76.9291 52.1428H68.9291ZM74.9291 58.1428C71.6154 58.1428 68.9291 55.4565 68.9291 52.1428H76.9291C76.9291 51.0383 76.0337 50.1428 74.9291 50.1428V58.1428ZM78.072 58.1428H74.9291V50.1428H78.072V58.1428ZM77.2173 56.6701C76.8423 57.3263 77.3162 58.1428 78.072 58.1428V50.1428C83.4588 50.1428 86.8359 55.9622 84.1633 60.6392L77.2173 56.6701ZM64.3847 79.1271L77.2173 56.6701L84.1633 60.6392L71.3307 83.0962L64.3847 79.1271ZM58.4981 56.6701L71.3307 79.1271L64.3847 83.0962L51.5521 60.6392L58.4981 56.6701ZM57.6434 58.1428C58.3992 58.1428 58.8731 57.3263 58.4981 56.6701L51.5521 60.6392C48.8795 55.9622 52.2566 50.1428 57.6434 50.1428V58.1428ZM60.7863 58.1428H57.6434V50.1428H60.7863V58.1428ZM66.7863 52.1428C66.7863 55.4565 64.1 58.1428 60.7863 58.1428V50.1428C59.6817 50.1428 58.7863 51.0383 58.7863 52.1428H66.7863ZM60.7863 46.1428C64.1 46.1428 66.7863 48.8291 66.7863 52.1428H58.7863C58.7863 53.2474 59.6817 54.1428 60.7863 54.1428V46.1428ZM57.6434 46.1428H60.7863V54.1428H57.6434V46.1428ZM48.0792 62.6238C43.8828 55.2801 49.1854 46.1428 57.6434 46.1428V54.1428C55.3279 54.1428 53.8763 56.6442 55.0251 58.6546L48.0792 62.6238ZM61.78 86.6002L48.0792 62.6238L55.0251 58.6546L68.7259 82.6311L61.78 86.6002ZM63.1846 88.3443C62.6347 87.8503 62.1596 87.2646 61.78 86.6002L68.7259 82.6311C68.6823 82.5547 68.6177 82.4711 68.5313 82.3935L63.1846 88.3443ZM61.858 87.4999V85.3689H69.858V87.4999H61.858ZM81.2151 106.857C70.5245 106.857 61.858 98.1906 61.858 87.4999H69.858C69.858 93.7723 74.9427 98.8571 81.2151 98.8571V106.857ZM100.496 89.2243C99.6213 99.1092 91.3252 106.857 81.2151 106.857V98.8571C87.1435 98.8571 92.0147 94.3119 92.5274 88.5189L100.496 89.2243ZM108 79.6429C108 86.1168 103.423 91.5124 97.3309 92.7869L95.6928 84.9564C98.1535 84.4416 100 82.2533 100 79.6429H108ZM94.5714 66.2144C101.988 66.2144 108 72.2265 108 79.6429H100C100 76.6448 97.5695 74.2144 94.5714 74.2144V66.2144ZM81.1429 79.6429C81.1429 72.2265 87.155 66.2144 94.5714 66.2144V74.2144C91.5733 74.2144 89.1429 76.6448 89.1429 79.6429H81.1429ZM91.6162 92.7444C85.6227 91.3965 81.1429 86.0477 81.1429 79.6429H89.1429C89.1429 82.225 90.9495 84.3947 93.3714 84.9393L91.6162 92.7444ZM81.2151 94.8571C84.9814 94.8571 88.0917 92.0236 88.5212 88.3742L96.4664 89.3095C95.5682 96.94 89.0856 102.857 81.2151 102.857V94.8571ZM73.858 87.4999C73.858 91.5632 77.1519 94.8571 81.2151 94.8571V102.857C72.7336 102.857 65.858 95.9814 65.858 87.4999H73.858ZM73.858 85.3684V87.4999H65.858V85.3684H73.858ZM73.9354 86.6002C73.5561 87.264 73.0814 87.8493 72.5321 88.3432L67.1839 82.3937C67.0975 82.4713 67.0331 82.5548 66.9895 82.6311L73.9354 86.6002ZM87.6362 62.6238L73.9354 86.6002L66.9895 82.6311L80.6903 58.6546L87.6362 62.6238ZM94.5714 89.0715C89.3642 89.0715 85.1429 84.8502 85.1429 79.6429H93.1429C93.1429 80.4319 93.7824 81.0715 94.5714 81.0715V89.0715ZM104 79.6429C104 84.8502 99.7787 89.0715 94.5714 89.0715V81.0715C95.3604 81.0715 96 80.4319 96 79.6429H104ZM94.5714 70.2144C99.7787 70.2144 104 74.4357 104 79.6429H96C96 78.8539 95.3604 78.2144 94.5714 78.2144V70.2144ZM85.1429 79.6429C85.1429 74.4357 89.3642 70.2144 94.5714 70.2144V78.2144C93.7824 78.2144 93.1429 78.8539 93.1429 79.6429H85.1429Z" fill="url(#paint0_linear)" mask="url(#path-1-inside-1)"/>
</g>
<defs>
<filter id="filter0_d" x="0.617188" y="0.142822" width="153.383" height="152.714" filterUnits="userSpaceOnUse" color-interpolation-filters="sRGB">
<feFlood flood-opacity="0" result="BackgroundImageFix"/>
<feColorMatrix in="SourceAlpha" type="matrix" values="0 0 0 0 0 0 0 0 0 0 0 0 0 0 0 0 0 0 127 0"/>
<feOffset/>
<feGaussianBlur stdDeviation="25"/>
<feColorMatrix type="matrix" values="0 0 0 0 0.462745 0 0 0 0 0.847059 0 0 0 0 0.984314 0 0 0 1 0"/>
<feBlend mode="normal" in2="BackgroundImageFix" result="effect1_dropShadow"/>
<feBlend mode="normal" in="SourceGraphic" in2="effect1_dropShadow" result="shape"/>
</filter>
<linearGradient id="paint0_linear" x1="104" y1="50.1428" x2="51.2899" y2="103.521" gradientUnits="userSpaceOnUse">
<stop stop-color="#8EEDFE"/>
<stop offset="1" stop-color="#2393EE"/>
</linearGradient>
</defs>
</svg>
