<svg width="155" height="155" viewBox="0 0 155 155" fill="none" xmlns="http://www.w3.org/2000/svg">
<g filter="url(#filter0_d)">
<mask id="path-1-inside-1" fill="white">
<path fill-rule="evenodd" clip-rule="evenodd" d="M76.5 50C70.9772 50 66.5 54.4772 66.5 60V67.1875H60C54.4772 67.1875 50 71.6647 50 77.1875V78.5C50 84.0228 54.4772 88.5 60 88.5H66.5V95C66.5 100.523 70.9772 105 76.5 105H77.8125C83.3353 105 87.8125 100.523 87.8125 95V88.5H95C100.523 88.5 105 84.0228 105 78.5V77.1875C105 71.6646 100.523 67.1875 95 67.1875H87.8125V60C87.8125 54.4772 83.3353 50 77.8125 50H76.5Z"/>
</mask>
<path d="M66.5 67.1875V71.1875H70.5V67.1875H66.5ZM66.5 88.5H70.5V84.5H66.5V88.5ZM87.8125 88.5V84.5H83.8125V88.5H87.8125ZM87.8125 67.1875H83.8125V71.1875H87.8125V67.1875ZM70.5 60C70.5 56.6863 73.1863 54 76.5 54V46C68.768 46 62.5 52.268 62.5 60H70.5ZM70.5 67.1875V60H62.5V67.1875H70.5ZM60 71.1875H66.5V63.1875H60V71.1875ZM54 77.1875C54 73.8738 56.6863 71.1875 60 71.1875V63.1875C52.268 63.1875 46 69.4555 46 77.1875H54ZM54 78.5V77.1875H46V78.5H54ZM60 84.5C56.6863 84.5 54 81.8137 54 78.5H46C46 86.232 52.268 92.5 60 92.5V84.5ZM66.5 84.5H60V92.5H66.5V84.5ZM70.5 95V88.5H62.5V95H70.5ZM76.5 101C73.1863 101 70.5 98.3137 70.5 95H62.5C62.5 102.732 68.768 109 76.5 109V101ZM77.8125 101H76.5V109H77.8125V101ZM83.8125 95C83.8125 98.3137 81.1262 101 77.8125 101V109C85.5445 109 91.8125 102.732 91.8125 95H83.8125ZM83.8125 88.5V95H91.8125V88.5H83.8125ZM95 84.5H87.8125V92.5H95V84.5ZM101 78.5C101 81.8137 98.3137 84.5 95 84.5V92.5C102.732 92.5 109 86.232 109 78.5H101ZM101 77.1875V78.5H109V77.1875H101ZM95 71.1875C98.3137 71.1875 101 73.8738 101 77.1875H109C109 69.4555 102.732 63.1875 95 63.1875V71.1875ZM87.8125 71.1875H95V63.1875H87.8125V71.1875ZM83.8125 60V67.1875H91.8125V60H83.8125ZM77.8125 54C81.1262 54 83.8125 56.6863 83.8125 60H91.8125C91.8125 52.268 85.5445 46 77.8125 46V54ZM76.5 54H77.8125V46H76.5V54Z" fill="url(#paint0_linear)" mask="url(#path-1-inside-1)"/>
</g>
<defs>
<filter id="filter0_d" x="0" y="0" width="155" height="155" filterUnits="userSpaceOnUse" color-interpolation-filters="sRGB">
<feFlood flood-opacity="0" result="BackgroundImageFix"/>
<feColorMatrix in="SourceAlpha" type="matrix" values="0 0 0 0 0 0 0 0 0 0 0 0 0 0 0 0 0 0 127 0"/>
<feOffset/>
<feGaussianBlur stdDeviation="25"/>
<feColorMatrix type="matrix" values="0 0 0 0 0.462745 0 0 0 0 0.847059 0 0 0 0 0.984314 0 0 0 1 0"/>
<feBlend mode="normal" in2="BackgroundImageFix" result="effect1_dropShadow"/>
<feBlend mode="normal" in="SourceGraphic" in2="effect1_dropShadow" result="shape"/>
</filter>
<linearGradient id="paint0_linear" x1="50" y1="50" x2="105" y2="105" gradientUnits="userSpaceOnUse">
<stop stop-color="#8EEDFE"/>
<stop offset="1" stop-color="#2393EE"/>
</linearGradient>
</defs>
</svg>
