<svg width="155" height="155" viewBox="0 0 155 155" fill="none" xmlns="http://www.w3.org/2000/svg">
<g filter="url(#filter0_d)">
<mask id="path-1-inside-1" fill="white">
<path fill-rule="evenodd" clip-rule="evenodd" d="M77.5 101C90.4787 101 101 90.4787 101 77.5C101 64.5213 90.4787 54 77.5 54C64.5213 54 54 64.5213 54 77.5C54 90.4787 64.5213 101 77.5 101ZM77.5 105C92.6878 105 105 92.6878 105 77.5C105 62.3122 92.6878 50 77.5 50C62.3122 50 50 62.3122 50 77.5C50 92.6878 62.3122 105 77.5 105ZM75.7812 69.1875C74.0381 69.1875 72.625 70.6006 72.625 72.3438V72.8594C72.625 74.3178 73.8072 75.5 75.2656 75.5H78.5328C82.4851 75.5 85.6891 78.704 85.6891 82.6562C85.6891 86.4038 82.8084 89.4786 79.1406 89.7871V91.2145C79.1406 92.3191 78.2452 93.2145 77.1406 93.2145C76.0361 93.2145 75.1406 92.3191 75.1406 91.2145V89.8125H72.0016C70.897 89.8125 70.0016 88.9171 70.0016 87.8125C70.0016 86.7079 70.897 85.8125 72.0016 85.8125H78.5328C80.276 85.8125 81.6891 84.3994 81.6891 82.6562C81.6891 80.9131 80.276 79.5 78.5328 79.5H75.2656H75.0953V79.4979C71.5065 79.4075 68.625 76.47 68.625 72.8594V72.3438C68.625 68.6074 71.4885 65.5398 75.1406 65.2158V63.7861C75.1406 62.6816 76.0361 61.7861 77.1406 61.7861C78.2452 61.7861 79.1406 62.6816 79.1406 63.7861V65.1875H82.3125C83.4171 65.1875 84.3125 66.0829 84.3125 67.1875C84.3125 68.2921 83.4171 69.1875 82.3125 69.1875H75.7812Z"/>
</mask>
<path d="M79.1406 89.7871L78.8054 85.8011L75.1406 86.1093V89.7871H79.1406ZM75.1406 89.8125H79.1406V85.8125H75.1406V89.8125ZM75.0953 79.5H71.0953V83.5H75.0953V79.5ZM75.0953 79.4979H79.0953V75.5973L75.196 75.4991L75.0953 79.4979ZM75.1406 65.2158L75.4941 69.2001L79.1406 68.8766V65.2158H75.1406ZM79.1406 65.1875H75.1406V69.1875H79.1406V65.1875ZM97 77.5C97 88.2696 88.2696 97 77.5 97V105C92.6878 105 105 92.6878 105 77.5H97ZM77.5 58C88.2696 58 97 66.7304 97 77.5H105C105 62.3122 92.6878 50 77.5 50V58ZM58 77.5C58 66.7304 66.7304 58 77.5 58V50C62.3122 50 50 62.3122 50 77.5H58ZM77.5 97C66.7304 97 58 88.2696 58 77.5H50C50 92.6878 62.3122 105 77.5 105V97ZM101 77.5C101 90.4787 90.4787 101 77.5 101V109C94.897 109 109 94.897 109 77.5H101ZM77.5 54C90.4787 54 101 64.5213 101 77.5H109C109 60.103 94.897 46 77.5 46V54ZM54 77.5C54 64.5213 64.5213 54 77.5 54V46C60.103 46 46 60.103 46 77.5H54ZM77.5 101C64.5213 101 54 90.4787 54 77.5H46C46 94.897 60.103 109 77.5 109V101ZM76.625 72.3438C76.625 72.8097 76.2472 73.1875 75.7812 73.1875V65.1875C71.829 65.1875 68.625 68.3915 68.625 72.3438H76.625ZM76.625 72.8594V72.3438H68.625V72.8594H76.625ZM75.2656 71.5C76.0164 71.5 76.625 72.1086 76.625 72.8594H68.625C68.625 76.5269 71.5981 79.5 75.2656 79.5V71.5ZM78.5328 71.5H75.2656V79.5H78.5328V71.5ZM89.6891 82.6562C89.6891 76.4948 84.6943 71.5 78.5328 71.5V79.5C80.276 79.5 81.6891 80.9131 81.6891 82.6562H89.6891ZM79.4759 93.773C85.198 93.2917 89.6891 88.5006 89.6891 82.6562H81.6891C81.6891 84.3071 80.4189 85.6654 78.8054 85.8011L79.4759 93.773ZM75.1406 89.7871V91.2145H83.1406V89.7871H75.1406ZM75.1406 91.2145C75.1406 90.1099 76.036 89.2145 77.1406 89.2145V97.2145C80.4543 97.2145 83.1406 94.5282 83.1406 91.2145H75.1406ZM77.1406 89.2145C78.2452 89.2145 79.1406 90.1099 79.1406 91.2145H71.1406C71.1406 94.5282 73.8269 97.2145 77.1406 97.2145V89.2145ZM79.1406 91.2145V89.8125H71.1406V91.2145H79.1406ZM72.0016 93.8125H75.1406V85.8125H72.0016V93.8125ZM66.0016 87.8125C66.0016 91.1262 68.6879 93.8125 72.0016 93.8125V85.8125C73.1062 85.8125 74.0016 86.7079 74.0016 87.8125H66.0016ZM72.0016 81.8125C68.6879 81.8125 66.0016 84.4988 66.0016 87.8125H74.0016C74.0016 88.9171 73.1062 89.8125 72.0016 89.8125V81.8125ZM78.5328 81.8125H72.0016V89.8125H78.5328V81.8125ZM77.6891 82.6562C77.6891 82.1903 78.0668 81.8125 78.5328 81.8125V89.8125C82.4851 89.8125 85.6891 86.6085 85.6891 82.6562H77.6891ZM78.5328 83.5C78.0668 83.5 77.6891 83.1222 77.6891 82.6562H85.6891C85.6891 78.704 82.4851 75.5 78.5328 75.5V83.5ZM75.2656 83.5H78.5328V75.5H75.2656V83.5ZM75.0953 83.5H75.2656V75.5H75.0953V83.5ZM71.0953 79.4979V79.5H79.0953V79.4979H71.0953ZM64.625 72.8594C64.625 78.6454 69.2421 83.3518 74.9947 83.4966L75.196 75.4991C73.7709 75.4633 72.625 74.2945 72.625 72.8594H64.625ZM64.625 72.3438V72.8594H72.625V72.3438H64.625ZM74.7871 61.2314C69.0894 61.7369 64.625 66.5168 64.625 72.3438H72.625C72.625 70.698 73.8876 69.3427 75.4941 69.2001L74.7871 61.2314ZM71.1406 63.7861V65.2158H79.1406V63.7861H71.1406ZM77.1406 57.7861C73.8269 57.7861 71.1406 60.4724 71.1406 63.7861H79.1406C79.1406 64.8907 78.2452 65.7861 77.1406 65.7861V57.7861ZM83.1406 63.7861C83.1406 60.4724 80.4543 57.7861 77.1406 57.7861V65.7861C76.0361 65.7861 75.1406 64.8907 75.1406 63.7861H83.1406ZM83.1406 65.1875V63.7861H75.1406V65.1875H83.1406ZM82.3125 61.1875H79.1406V69.1875H82.3125V61.1875ZM88.3125 67.1875C88.3125 63.8738 85.6262 61.1875 82.3125 61.1875V69.1875C81.2079 69.1875 80.3125 68.2921 80.3125 67.1875H88.3125ZM82.3125 73.1875C85.6262 73.1875 88.3125 70.5012 88.3125 67.1875H80.3125C80.3125 66.0829 81.2079 65.1875 82.3125 65.1875V73.1875ZM75.7812 73.1875H82.3125V65.1875H75.7812V73.1875Z" fill="url(#paint0_linear)" mask="url(#path-1-inside-1)"/>
</g>
<defs>
<filter id="filter0_d" x="0" y="0" width="155" height="155" filterUnits="userSpaceOnUse" color-interpolation-filters="sRGB">
<feFlood flood-opacity="0" result="BackgroundImageFix"/>
<feColorMatrix in="SourceAlpha" type="matrix" values="0 0 0 0 0 0 0 0 0 0 0 0 0 0 0 0 0 0 127 0"/>
<feOffset/>
<feGaussianBlur stdDeviation="25"/>
<feColorMatrix type="matrix" values="0 0 0 0 0.462745 0 0 0 0 0.847059 0 0 0 0 0.984314 0 0 0 1 0"/>
<feBlend mode="normal" in2="BackgroundImageFix" result="effect1_dropShadow"/>
<feBlend mode="normal" in="SourceGraphic" in2="effect1_dropShadow" result="shape"/>
</filter>
<linearGradient id="paint0_linear" x1="50" y1="50" x2="105" y2="105" gradientUnits="userSpaceOnUse">
<stop stop-color="#8EEDFE"/>
<stop offset="1" stop-color="#2393EE"/>
</linearGradient>
</defs>
</svg>
