<svg width="155" height="155" viewBox="0 0 155 155" fill="none" xmlns="http://www.w3.org/2000/svg">
<g filter="url(#filter0_d)">
<mask id="path-1-inside-1" fill="white">
<path fill-rule="evenodd" clip-rule="evenodd" d="M65.7408 80.2015C65.6762 77.015 63.0729 74.4518 59.871 74.4518C56.6285 74.4518 54 77.0803 54 80.3228V95.1293C54 98.3717 56.6285 101 59.871 101C63.0729 101 65.6762 98.437 65.7408 95.2506V80.2015ZM68.2705 100.317C66.5307 103.128 63.4195 105 59.871 105C54.4194 105 50 100.581 50 95.1293V80.3228C50 74.8712 54.4194 70.4518 59.871 70.4518C62.8611 70.4518 65.5406 71.7813 67.3508 73.8813C68.0797 72.6476 68.846 71.5622 69.5564 70.5954C69.8492 70.1969 70.1228 69.8305 70.3797 69.4863L70.3803 69.4856C71.183 68.4102 71.8234 67.5523 72.3815 66.6146C73.451 64.8179 75.2611 60.7472 76.3518 58.1709C76.2942 57.5635 76.2543 56.879 76.2617 56.2097C76.2679 55.6451 76.3082 54.9162 76.4706 54.1922C76.5758 53.7231 76.96 52.0848 78.5079 51.0446C79.3995 50.4454 80.3657 50.2032 81.0566 50.0967C81.8179 49.9793 82.6282 49.9687 83.4263 50.0653C84.9144 50.2453 87.0286 50.8953 88.5031 52.7532C89.6262 54.1685 90.2503 55.9588 90.54 57.6135C90.8392 59.3226 90.845 61.2375 90.4338 63.103C90.2517 63.9291 89.9902 64.7817 89.7727 65.4911L89.7726 65.4911L89.7594 65.5343C89.5959 66.0677 89.4462 66.5562 89.3146 67.0329C89.6928 66.9842 90.0684 66.9412 90.4394 66.9045C92.3875 66.712 94.6221 66.6483 96.4773 67.1158C97.9264 67.481 99.5611 68.0905 100.965 69.1364C102.427 70.2258 103.761 71.8997 104.091 74.2261C104.234 75.2355 104.189 76.1798 104.007 77.0346C104.597 78.0827 104.999 79.3783 104.999 80.9142C104.999 82.5641 104.534 83.9593 103.899 85.0719C104.214 86.136 104.46 87.6648 103.968 89.336C103.551 90.7564 102.891 91.8636 102.141 92.7236C102.336 93.7388 102.35 94.991 101.823 96.321C101.314 97.6016 100.424 98.5572 99.6236 99.2213C98.7865 99.9156 97.8128 100.486 96.8032 100.939C94.7885 101.842 92.3067 102.419 89.7113 102.419C87.8293 102.419 83.8751 102.028 80.0525 101.632C79.2785 101.552 78.501 101.471 77.732 101.391L77.7312 101.391C74.5333 101.056 71.482 100.737 69.4429 100.585C69.0307 100.554 68.637 100.462 68.2705 100.317ZM69.7408 95.2866V96.5962C71.8455 96.7533 74.9801 97.0811 78.1827 97.416L78.1828 97.416C82.9071 97.91 87.7793 98.4195 89.7113 98.4195C93.7633 98.4195 97.41 96.5962 98.1047 94.8456C98.2216 94.5509 98.2677 94.2551 98.2643 93.9668C98.253 92.9916 97.6765 92.1014 97.3661 91.6222L97.366 91.6221C97.314 91.5418 97.2695 91.4731 97.2364 91.4174C97.6551 91.2486 98.1464 90.9928 98.6158 90.5963C99.2281 90.0792 99.803 89.3229 100.131 88.2081C100.539 86.8188 99.7678 85.3696 99.3862 84.6524C99.3375 84.5609 99.2951 84.4813 99.2624 84.4153C99.8412 84.0263 100.999 82.7814 100.999 80.9142C100.999 80.5061 100.944 80.1371 100.851 79.8064C100.521 78.6241 99.7147 77.9329 99.2624 77.7049C99.5439 77.4921 100 76.9066 100.136 75.9712C100.187 75.6243 100.193 75.2293 100.131 74.7874C99.8412 72.7451 97.8152 71.5781 95.4998 70.9946C93.1844 70.4111 88.843 70.9946 85.0804 71.8698C85.0623 71.7967 85.0453 71.7235 85.0294 71.6504C84.745 70.3424 84.8133 69.037 85.038 67.7798C85.2491 66.5989 85.5982 65.4605 85.9226 64.4025C86.1579 63.6352 86.3802 62.9102 86.5276 62.2419C87.1064 59.6161 86.5276 56.6986 85.3699 55.2398C84.2121 53.781 81.6073 53.781 80.739 54.3645C80.0444 54.8314 80.2566 57.4766 80.4496 58.7409C79.4848 61.0749 77.208 66.3265 75.8187 68.6605C75.1439 69.7943 74.338 70.873 73.5028 71.9908L73.5028 71.9908C72.1888 73.7495 70.8025 75.605 69.7408 77.9239V80.1655C69.7416 80.2178 69.742 80.2702 69.742 80.3228V95.1293C69.742 95.1818 69.7416 95.2343 69.7408 95.2866Z"/>
</mask>
<path d="M65.7408 80.2015H69.7408V80.1609L69.7399 80.1204L65.7408 80.2015ZM65.7408 95.2506L69.7399 95.3316L69.7408 95.2911V95.2506H65.7408ZM68.2705 100.317L69.74 96.5967L66.6294 95.368L64.8692 98.2119L68.2705 100.317ZM67.3508 73.8813L64.321 76.4929L67.9597 80.7143L70.7947 75.916L67.3508 73.8813ZM69.5564 70.5954L72.7798 72.964L72.7798 72.964L69.5564 70.5954ZM70.3797 69.4863L73.5851 71.8792L73.5913 71.8707L70.3797 69.4863ZM70.3803 69.4856L67.1749 67.0928L67.1686 67.1012L70.3803 69.4856ZM72.3815 66.6146L75.8187 68.6605L75.8187 68.6605L72.3815 66.6146ZM76.3518 58.1709L80.0353 59.7304L80.4294 58.7995L80.3339 57.7931L76.3518 58.1709ZM76.2617 56.2097L72.2619 56.1657V56.1657L76.2617 56.2097ZM76.4706 54.1922L80.3736 55.0675V55.0675L76.4706 54.1922ZM78.5079 51.0446L76.2768 47.7246V47.7246L78.5079 51.0446ZM81.0566 50.0967L80.4471 46.1434H80.4471L81.0566 50.0967ZM83.4263 50.0653L82.9459 54.0363L83.4263 50.0653ZM88.5031 52.7532L91.6363 50.2667L91.6363 50.2667L88.5031 52.7532ZM90.54 57.6135L94.4801 56.9237L94.4801 56.9237L90.54 57.6135ZM90.4338 63.103L86.5276 62.2419L86.5276 62.2419L90.4338 63.103ZM89.7727 65.4911L85.9485 64.3183L85.9221 64.4044L85.8996 64.4915L89.7727 65.4911ZM89.7726 65.4911L93.5968 66.664L93.6232 66.5779L93.6457 66.4907L89.7726 65.4911ZM89.7594 65.5343L85.9352 64.3614L85.9351 64.3617L89.7594 65.5343ZM89.3146 67.0329L85.4589 65.9681L83.8574 71.7675L89.8247 71.0002L89.3146 67.0329ZM90.4394 66.9045L90.046 62.9239L90.4394 66.9045ZM96.4773 67.1158L97.4548 63.2371L96.4773 67.1158ZM100.965 69.1364L103.355 65.9288L100.965 69.1364ZM104.091 74.2261L100.131 74.7874V74.7874L104.091 74.2261ZM104.007 77.0346L100.095 76.201L99.7797 77.6795L100.521 78.9968L104.007 77.0346ZM103.899 85.0719L100.425 83.0881L99.5785 84.5709L100.064 86.2082L103.899 85.0719ZM103.968 89.336L107.806 90.464V90.464L103.968 89.336ZM102.141 92.7236L99.1257 90.0952L97.8445 91.565L98.2131 93.4798L102.141 92.7236ZM101.823 96.321L105.541 97.7963L105.541 97.7963L101.823 96.321ZM99.6236 99.2213L97.07 96.1426L97.07 96.1426L99.6236 99.2213ZM96.8032 100.939L95.167 97.289L95.167 97.289L96.8032 100.939ZM80.0525 101.632L80.4641 97.6537L80.0525 101.632ZM77.732 101.391L78.1479 97.4124L78.1376 97.4113L78.1272 97.4103L77.732 101.391ZM77.7312 101.391L77.3153 105.369L77.3256 105.37L77.336 105.371L77.7312 101.391ZM69.4429 100.585L69.1451 104.574H69.1451L69.4429 100.585ZM69.7408 95.2866L65.7413 95.2241L65.7408 95.2553V95.2866H69.7408ZM69.7408 96.5962H65.7408V100.309L69.4429 100.585L69.7408 96.5962ZM78.1827 97.416L78.6244 93.4405L78.6115 93.439L78.5987 93.4377L78.1827 97.416ZM78.1828 97.416L77.741 101.392L77.7539 101.393L77.7668 101.394L78.1828 97.416ZM98.1047 94.8456L101.823 96.321L101.823 96.321L98.1047 94.8456ZM98.2643 93.9668L94.2646 94.0133V94.0133L98.2643 93.9668ZM97.3661 91.6222L93.9361 93.6802L93.9714 93.739L94.0087 93.7966L97.3661 91.6222ZM97.366 91.6221L100.796 89.5641L100.761 89.5052L100.723 89.4476L97.366 91.6221ZM97.2364 91.4174L95.7405 87.7076L91.4123 89.4529L93.7991 93.4632L97.2364 91.4174ZM98.6158 90.5963L101.197 93.6523L101.197 93.6522L98.6158 90.5963ZM100.131 88.2081L96.293 87.0801L96.293 87.0802L100.131 88.2081ZM99.3862 84.6524L102.917 82.7734L102.917 82.7734L99.3862 84.6524ZM99.2624 84.4153L97.0313 81.0953L94.1208 83.0513L95.679 86.1927L99.2624 84.4153ZM100.851 79.8064L104.703 78.7292L104.703 78.7292L100.851 79.8064ZM99.2624 77.7049L96.8501 74.5142L91.7279 78.3867L97.462 81.2769L99.2624 77.7049ZM100.136 75.9712L96.178 75.3946L96.178 75.3947L100.136 75.9712ZM100.131 74.7874L104.091 74.2261L104.091 74.2261L100.131 74.7874ZM95.4998 70.9946L96.4773 67.1158L95.4998 70.9946ZM85.0804 71.8698L81.198 72.8327L82.147 76.659L85.9867 75.7658L85.0804 71.8698ZM85.0294 71.6504L81.1207 72.5001L81.1207 72.5002L85.0294 71.6504ZM85.038 67.7798L88.9756 68.4836V68.4836L85.038 67.7798ZM85.9226 64.4025L89.7469 65.5752L89.7469 65.5752L85.9226 64.4025ZM86.5276 62.2419L90.4338 63.1031L90.4338 63.103L86.5276 62.2419ZM85.3699 55.2398L82.2367 57.7264V57.7264L85.3699 55.2398ZM80.739 54.3645L78.5079 51.0446V51.0446L80.739 54.3645ZM80.4496 58.7409L84.1462 60.2689L84.5719 59.239L84.4038 58.1374L80.4496 58.7409ZM75.8187 68.6605L72.3815 66.6146V66.6146L75.8187 68.6605ZM73.5028 71.9908L70.2984 69.5967L70.2341 69.6827L70.1746 69.772L73.5028 71.9908ZM73.5028 71.9908L76.7072 74.385L76.7714 74.299L76.831 74.2096L73.5028 71.9908ZM69.7408 77.9239L66.1039 76.2587L65.7408 77.0517V77.9239H69.7408ZM69.7408 80.1655H65.7408V80.1967L65.7413 80.228L69.7408 80.1655ZM69.7399 80.1204C69.6313 74.7613 65.2549 70.4518 59.871 70.4518V78.4518C60.8909 78.4518 61.721 79.2687 61.7416 80.2825L69.7399 80.1204ZM59.871 70.4518C54.4194 70.4518 50 74.8712 50 80.3228H58C58 79.2895 58.8377 78.4518 59.871 78.4518V70.4518ZM50 80.3228V95.1293H58V80.3228H50ZM50 95.1293C50 100.581 54.4194 105 59.871 105V97.0003C58.8377 97.0003 58 96.1626 58 95.1293H50ZM59.871 105C65.2549 105 69.6313 100.691 69.7399 95.3316L61.7416 95.1695C61.721 96.1833 60.8909 97.0003 59.871 97.0003V105ZM69.7408 95.2506V80.2015H61.7408V95.2506H69.7408ZM59.871 109C64.862 109 69.2334 106.362 71.6717 102.422L64.8692 98.2119C63.8281 99.894 61.9771 101 59.871 101V109ZM46 95.1293C46 102.79 52.2103 109 59.871 109V101C56.6285 101 54 98.3717 54 95.1293H46ZM46 80.3228V95.1293H54V80.3228H46ZM59.871 66.4518C52.2103 66.4518 46 72.662 46 80.3228H54C54 77.0803 56.6285 74.4518 59.871 74.4518V66.4518ZM70.3806 71.2698C67.843 68.3257 64.0736 66.4518 59.871 66.4518V74.4518C61.6485 74.4518 63.2383 75.2368 64.321 76.4929L70.3806 71.2698ZM70.7947 75.916C71.4241 74.8505 72.1003 73.8886 72.7798 72.964L66.3331 68.2269C65.5917 69.2357 64.7353 70.4446 63.907 71.8466L70.7947 75.916ZM72.7798 72.964C73.0624 72.5794 73.3273 72.2244 73.5851 71.8792L67.1743 67.0935C66.9182 67.4366 66.6361 67.8145 66.3331 68.2269L72.7798 72.964ZM73.5913 71.8707L73.5919 71.87L67.1686 67.1012L67.1681 67.1019L73.5913 71.8707ZM73.5856 71.8784C74.3617 70.8388 75.1344 69.8103 75.8187 68.6605L68.9443 64.5688C68.5125 65.2943 68.0044 65.9815 67.1749 67.0928L73.5856 71.8784ZM75.8187 68.6605C77.0537 66.5857 78.9684 62.2504 80.0353 59.7304L72.6683 56.6115C71.5538 59.244 69.8482 63.0501 68.9443 64.5688L75.8187 68.6605ZM80.3339 57.7931C80.2857 57.2846 80.256 56.7461 80.2615 56.2537L72.2619 56.1657C72.2526 57.0119 72.3027 57.8423 72.3697 58.5487L80.3339 57.7931ZM80.2615 56.2537C80.2663 55.8166 80.2986 55.402 80.3736 55.0675L72.5675 53.3168C72.3178 54.4305 72.2696 55.4737 72.2619 56.1657L80.2615 56.2537ZM80.3736 55.0675C80.4031 54.9359 80.4397 54.7919 80.5173 54.6385C80.5907 54.4935 80.6638 54.4151 80.739 54.3645L76.2768 47.7246C73.358 49.6861 72.7049 52.7043 72.5675 53.3168L80.3736 55.0675ZM80.739 54.3645C80.9565 54.2184 81.2825 54.1091 81.6661 54.05L80.4471 46.1434C79.4488 46.2973 77.8424 46.6725 76.2768 47.7246L80.739 54.3645ZM81.6661 54.05C82.0504 53.9907 82.4936 53.9816 82.9459 54.0363L83.9066 46.0942C82.7628 45.9559 81.5854 45.9679 80.4471 46.1434L81.6661 54.05ZM82.9459 54.0363C83.8608 54.147 84.7955 54.5161 85.3699 55.2398L91.6363 50.2667C89.2616 47.2744 85.968 46.3436 83.9066 46.0942L82.9459 54.0363ZM85.3699 55.2398C85.9483 55.9687 86.3827 57.0624 86.5999 58.3032L94.4801 56.9237C94.118 54.8552 93.3042 52.3683 91.6363 50.2667L85.3699 55.2398ZM86.5999 58.3032C86.817 59.5434 86.817 60.9292 86.5276 62.2419L94.34 63.9642C94.8731 61.5458 94.8614 59.1018 94.4801 56.9237L86.5999 58.3032ZM86.5276 62.2419C86.3859 62.8844 86.1737 63.5837 85.9485 64.3183L93.5969 66.6639C93.8067 65.9798 94.1174 64.9738 94.34 63.9641L86.5276 62.2419ZM85.8996 64.4915L85.8995 64.4916L93.6457 66.4907L93.6458 66.4906L85.8996 64.4915ZM85.9485 64.3182L85.9352 64.3614L93.5836 66.7072L93.5968 66.664L85.9485 64.3182ZM85.9351 64.3617C85.7748 64.8846 85.6081 65.4278 85.4589 65.9681L93.1703 68.0976C93.2843 67.6846 93.4169 67.2508 93.5837 66.7069L85.9351 64.3617ZM89.8247 71.0002C90.1669 70.9562 90.5035 70.9177 90.8328 70.8852L90.046 62.9239C89.6334 62.9647 89.2188 63.0123 88.8045 63.0655L89.8247 71.0002ZM90.8328 70.8852C92.6739 70.7032 94.3401 70.7023 95.4998 70.9946L97.4548 63.2371C94.904 62.5943 92.1011 62.7208 90.046 62.9239L90.8328 70.8852ZM95.4998 70.9946C96.6572 71.2862 97.7427 71.7238 98.575 72.3439L103.355 65.9288C101.38 64.4571 99.1957 63.6758 97.4548 63.2371L95.4998 70.9946ZM98.575 72.3439C99.4138 72.9689 99.9869 73.7728 100.131 74.7874L108.052 73.6649C107.536 70.0265 105.44 67.4827 103.355 65.9288L98.575 72.3439ZM100.131 74.7874C100.208 75.3332 100.179 75.8054 100.095 76.201L107.919 77.8682C108.199 76.5542 108.26 75.1377 108.052 73.6648L100.131 74.7874ZM100.521 78.9968C100.793 79.4789 100.999 80.1026 100.999 80.9142H108.999C108.999 78.654 108.401 76.6866 107.493 75.0724L100.521 78.9968ZM100.999 80.9142C100.999 81.7869 100.759 82.5048 100.425 83.0881L107.372 87.0558C108.31 85.4137 108.999 83.3413 108.999 80.9142H100.999ZM100.064 86.2082C100.252 86.8428 100.329 87.5344 100.131 88.2081L107.806 90.464C108.59 87.7953 108.177 85.4292 107.734 83.9357L100.064 86.2082ZM100.131 88.2081C99.8821 89.0536 99.511 89.6532 99.1257 90.0952L105.156 95.3519C106.27 94.074 107.22 92.4592 107.806 90.464L100.131 88.2081ZM98.2131 93.4798C98.2988 93.9251 98.2909 94.3764 98.1047 94.8457L105.541 97.7963C106.41 95.6056 106.374 93.5525 106.069 91.9674L98.2131 93.4798ZM98.1047 94.8456C97.9312 95.2827 97.5735 95.7249 97.07 96.1426L102.177 102.3C103.275 101.389 104.698 99.9205 105.541 97.7963L98.1047 94.8456ZM97.07 96.1426C96.5671 96.5597 95.9195 96.9517 95.167 97.289L98.4393 104.589C99.706 104.021 101.006 103.272 102.177 102.3L97.07 96.1426ZM95.167 97.289C93.6619 97.9637 91.7372 98.4195 89.7113 98.4195V106.419C92.8762 106.419 95.9152 105.721 98.4393 104.589L95.167 97.289ZM89.7113 98.4195C88.0899 98.4195 84.3974 98.0606 80.4641 97.6537L79.6408 105.611C83.3529 105.995 87.5686 106.419 89.7113 106.419V98.4195ZM80.4641 97.6537C79.6927 97.5739 78.9173 97.4929 78.1479 97.4124L77.3161 105.369C78.0848 105.449 78.8644 105.531 79.6408 105.611L80.4641 97.6537ZM78.1272 97.4103L78.1264 97.4102L77.336 105.371L77.3368 105.371L78.1272 97.4103ZM78.1471 97.4123C74.9765 97.0809 71.8536 96.7539 69.7408 96.5962L69.1451 104.574C71.1104 104.721 74.0902 105.032 77.3153 105.369L78.1471 97.4123ZM69.7408 96.5962L69.74 96.5967L66.801 104.037C67.5377 104.328 68.3261 104.513 69.1451 104.574L69.7408 96.5962ZM65.7408 95.2866V96.5962H73.7408V95.2866H65.7408ZM69.4429 100.585C71.474 100.737 74.5374 101.057 77.7667 101.394L78.5987 93.4377C75.4229 93.1056 72.2171 92.7699 70.0386 92.6073L69.4429 100.585ZM77.7409 101.392L77.741 101.392L78.6245 93.4405L78.6244 93.4405L77.7409 101.392ZM77.7668 101.394C82.3364 101.872 87.5089 102.419 89.7113 102.419V94.4195C88.0498 94.4195 83.4778 93.9479 78.5988 93.4377L77.7668 101.394ZM89.7113 102.419C92.3067 102.419 94.7885 101.842 96.8032 100.939C97.8128 100.486 98.7865 99.9156 99.6236 99.2213C100.424 98.5572 101.314 97.6016 101.823 96.321L94.3867 93.3703C94.5475 92.965 94.7213 92.8938 94.5163 93.0638C94.3476 93.2037 94.0262 93.4169 93.5308 93.639C92.5354 94.0852 91.1678 94.4195 89.7113 94.4195V102.419ZM101.823 96.321C102.151 95.4944 102.273 94.6755 102.264 93.9203L94.2646 94.0133C94.2625 93.8347 94.2926 93.6073 94.3867 93.3703L101.823 96.321ZM102.264 93.9203C102.237 91.618 100.945 89.7904 100.723 89.4478L94.0087 93.7966C94.0881 93.9192 94.1398 93.9998 94.1897 94.0844C94.2376 94.1658 94.2685 94.2256 94.2878 94.2678C94.3075 94.311 94.3052 94.3147 94.2965 94.2819C94.2876 94.2483 94.2663 94.155 94.2646 94.0133L102.264 93.9203ZM100.796 89.5642L100.796 89.5641L93.9361 93.6801L93.9361 93.6802L100.796 89.5642ZM100.723 89.4476C100.71 89.427 100.699 89.4106 100.69 89.3954C100.68 89.3805 100.673 89.3697 100.668 89.3616C100.663 89.3534 100.661 89.3503 100.661 89.3509C100.661 89.3513 100.666 89.3588 100.674 89.3716L93.7991 93.4632C93.8798 93.5987 93.972 93.74 94.0087 93.7965L100.723 89.4476ZM98.7322 95.1272C99.4385 94.8424 100.325 94.3883 101.197 93.6523L96.0349 87.5404C95.9676 87.5972 95.8716 87.6548 95.7405 87.7076L98.7322 95.1272ZM101.197 93.6522C102.369 92.6618 103.406 91.2494 103.968 89.336L96.293 87.0802C96.2405 87.2586 96.1837 87.3594 96.1485 87.4124C96.1123 87.4669 96.0751 87.5065 96.0349 87.5404L101.197 93.6522ZM103.968 89.336C104.473 87.6205 104.198 86.0593 103.883 85.0189C103.567 83.9756 103.102 83.1213 102.917 82.7734L95.855 86.5314C95.9519 86.7136 96.0233 86.8493 96.0907 86.995C96.1568 87.1379 96.2001 87.251 96.2263 87.3376C96.253 87.4257 96.2499 87.4468 96.2476 87.4103C96.245 87.3674 96.2442 87.246 96.293 87.0801L103.968 89.336ZM102.917 82.7734C102.892 82.7251 102.875 82.6932 102.86 82.6661C102.846 82.6388 102.843 82.6323 102.846 82.6379L95.679 86.1927C95.7427 86.3212 95.8156 86.4574 95.855 86.5315L102.917 82.7734ZM101.493 87.7352C102.871 86.8095 104.999 84.4453 104.999 80.9142H96.9989C96.9989 80.9626 96.9921 80.9974 96.9831 81.0269C96.973 81.06 96.9566 81.0972 96.9327 81.1364C96.9076 81.1775 96.8833 81.206 96.8735 81.2164C96.8694 81.2206 96.8751 81.2142 96.8941 81.1978C96.9108 81.1834 96.9552 81.1464 97.0313 81.0953L101.493 87.7352ZM104.999 80.9142C104.999 80.1404 104.893 79.409 104.703 78.7292L96.999 80.8837C96.9968 80.876 96.9966 80.8731 96.997 80.8761C96.9974 80.8792 96.9989 80.8914 96.9989 80.9142H104.999ZM104.703 78.7292C104.038 76.3515 102.41 74.8121 101.063 74.133L97.462 81.2769C97.2938 81.1921 97.1975 81.1197 97.1578 81.088C97.1106 81.0503 97.0828 81.0212 97.0659 81.0015C97.0302 80.9599 97.0085 80.9178 96.999 80.8837L104.703 78.7292ZM101.675 80.8957C102.856 80.0028 103.818 78.4463 104.094 76.5477L96.178 75.3947C96.1851 75.3458 96.2096 75.2486 96.2838 75.1192C96.3199 75.0563 96.3725 74.9772 96.4501 74.886C96.5206 74.803 96.6481 74.6669 96.8501 74.5142L101.675 80.8957ZM104.094 76.5477C104.201 75.8167 104.206 75.0385 104.091 74.2261L96.1702 75.3486C96.1755 75.386 96.1759 75.4069 96.1759 75.4124C96.1759 75.418 96.1755 75.4116 96.178 75.3946L104.094 76.5477ZM104.091 74.2261C103.761 71.8997 102.427 70.2258 100.965 69.1364C99.5611 68.0905 97.9264 67.481 96.4773 67.1158L94.5223 74.8733C95.3886 75.0916 95.9246 75.3574 96.1851 75.5515C96.2982 75.6358 96.3023 75.6644 96.2685 75.6131C96.2259 75.5482 96.1844 75.4488 96.1702 75.3486L104.091 74.2261ZM96.4773 67.1158C94.6221 66.6483 92.3875 66.712 90.4394 66.9045C88.3807 67.108 86.1788 67.5075 84.1741 67.9739L85.9867 75.7658C87.7446 75.3569 89.5947 75.027 91.2262 74.8658C92.9683 74.6936 94.0621 74.7573 94.5223 74.8733L96.4773 67.1158ZM88.9628 70.907C88.9541 70.8717 88.9458 70.8362 88.9381 70.8006L81.1207 72.5002C81.1447 72.6108 81.1705 72.7216 81.198 72.8327L88.9628 70.907ZM88.9381 70.8006C88.8002 70.1664 88.8082 69.4203 88.9756 68.4836L81.1004 67.076C80.8184 68.6538 80.6898 70.5185 81.1207 72.5001L88.9381 70.8006ZM88.9756 68.4836C89.1374 67.5784 89.4122 66.6667 89.7469 65.5752L82.0984 63.2298C81.7842 64.2544 81.3608 65.6194 81.1004 67.076L88.9756 68.4836ZM89.7469 65.5752C89.97 64.8476 90.245 63.9595 90.4338 63.1031L82.6214 61.3808C82.5155 61.861 82.3458 62.4229 82.0984 63.2298L89.7469 65.5752ZM90.4338 63.103C90.845 61.2375 90.8392 59.3226 90.54 57.6135C90.2503 55.9588 89.6262 54.1685 88.5031 52.7532L82.2367 57.7264C82.2342 57.7233 82.309 57.8216 82.407 58.0666C82.5015 58.3025 82.5938 58.6158 82.6598 58.993C82.7948 59.7638 82.7889 60.6206 82.6214 61.3808L90.4338 63.103ZM88.5031 52.7532C87.0286 50.8953 84.9144 50.2453 83.4263 50.0653C82.6282 49.9687 81.8179 49.9793 81.0566 50.0967C80.3657 50.2032 79.3995 50.4454 78.5079 51.0446L82.9701 57.6845C82.7117 57.8582 82.5063 57.9352 82.4221 57.9637C82.3719 57.9807 82.3349 57.9904 82.3129 57.9956C82.2905 58.0009 82.2779 58.0029 82.2756 58.0033C82.2726 58.0038 82.293 58.0006 82.3335 58.0001C82.373 57.9996 82.4187 58.0017 82.4655 58.0074C82.5713 58.0202 82.6129 58.0417 82.5902 58.0311C82.5631 58.0185 82.4054 57.939 82.2367 57.7264L88.5031 52.7532ZM78.5079 51.0446C76.96 52.0848 76.5758 53.7231 76.4706 54.1922C76.3082 54.9162 76.2679 55.6451 76.2617 56.2097C76.249 57.3686 76.3776 58.573 76.4954 59.3444L84.4038 58.1374C84.3286 57.6445 84.2547 56.8941 84.2612 56.2976C84.2647 55.9845 84.2895 55.8856 84.2767 55.9428C84.2695 55.9748 84.226 56.168 84.0902 56.437C83.9615 56.6921 83.6391 57.235 82.9701 57.6845L78.5079 51.0446ZM76.7529 57.2129C75.7667 59.5988 73.5963 64.5738 72.3815 66.6146L79.256 70.7064C80.8197 68.0792 83.2029 62.551 84.1462 60.2689L76.7529 57.2129ZM72.3815 66.6146C71.8327 67.5367 71.1577 68.4466 70.2984 69.5967L76.7072 74.385C77.5182 73.2994 78.4551 72.0519 79.256 70.7064L72.3815 66.6146ZM70.1746 69.772L70.1746 69.772L76.831 74.2096L76.831 74.2096L70.1746 69.772ZM70.2984 69.5967C69.0062 71.3263 67.3672 73.4994 66.1039 76.2587L73.3777 79.5891C74.2378 77.7105 75.3714 76.1728 76.7072 74.385L70.2984 69.5967ZM65.7408 77.9239V80.1655H73.7408V77.9239H65.7408ZM73.742 80.3228C73.742 80.2494 73.7414 80.1761 73.7403 80.1029L65.7413 80.228C65.7418 80.2595 65.742 80.2911 65.742 80.3228H73.742ZM73.742 95.1293V80.3228H65.742V95.1293H73.742ZM73.7403 95.3491C73.7414 95.2759 73.742 95.2026 73.742 95.1293H65.742C65.742 95.161 65.7418 95.1926 65.7413 95.2241L73.7403 95.3491Z" fill="url(#paint0_linear)" mask="url(#path-1-inside-1)"/>
</g>
<defs>
<filter id="filter0_d" x="0" y="0" width="154.999" height="155" filterUnits="userSpaceOnUse" color-interpolation-filters="sRGB">
<feFlood flood-opacity="0" result="BackgroundImageFix"/>
<feColorMatrix in="SourceAlpha" type="matrix" values="0 0 0 0 0 0 0 0 0 0 0 0 0 0 0 0 0 0 127 0"/>
<feOffset/>
<feGaussianBlur stdDeviation="25"/>
<feColorMatrix type="matrix" values="0 0 0 0 0.462745 0 0 0 0 0.847059 0 0 0 0 0.984314 0 0 0 1 0"/>
<feBlend mode="normal" in2="BackgroundImageFix" result="effect1_dropShadow"/>
<feBlend mode="normal" in="SourceGraphic" in2="effect1_dropShadow" result="shape"/>
</filter>
<linearGradient id="paint0_linear" x1="50" y1="50" x2="105" y2="104.999" gradientUnits="userSpaceOnUse">
<stop stop-color="#8EEDFE"/>
<stop offset="1" stop-color="#2393EE"/>
</linearGradient>
</defs>
</svg>
