<svg width="270" height="160" viewBox="0 0 270 160" fill="none" xmlns="http://www.w3.org/2000/svg">
<mask id="path-1-inside-1" fill="white">
<path fill-rule="evenodd" clip-rule="evenodd" d="M16.7408 71.2015C16.6762 68.015 14.0729 65.4518 10.871 65.4518C7.62854 65.4518 5 68.0803 5 71.3228V86.1293C5 89.3717 7.62854 92.0003 10.871 92.0003C14.0729 92.0003 16.6762 89.437 16.7408 86.2506V71.2015ZM19.2705 91.317C17.5307 94.1278 14.4195 96.0003 10.871 96.0003C5.4194 96.0003 1 91.5809 1 86.1293V71.3228C1 65.8712 5.4194 61.4518 10.871 61.4518C13.8611 61.4518 16.5406 62.7813 18.3508 64.8813C19.0797 63.6476 19.846 62.5622 20.5564 61.5954C20.8492 61.1969 21.1228 60.8305 21.3797 60.4863L21.3803 60.4856C22.183 59.4102 22.8234 58.5523 23.3815 57.6146C24.451 55.8179 26.2611 51.7472 27.3518 49.1709C27.2942 48.5635 27.2543 47.879 27.2617 47.2097C27.2679 46.6451 27.3082 45.9162 27.4706 45.1922C27.5758 44.7231 27.96 43.0848 29.5079 42.0446C30.3995 41.4454 31.3657 41.2032 32.0566 41.0967C32.8179 40.9793 33.6282 40.9687 34.4263 41.0653C35.9144 41.2453 38.0286 41.8953 39.5031 43.7532C40.6262 45.1685 41.2503 46.9588 41.54 48.6135C41.8392 50.3226 41.845 52.2375 41.4338 54.103C41.2517 54.9291 40.9902 55.7817 40.7727 56.4911L40.7726 56.4911L40.7594 56.5343C40.5959 57.0677 40.4462 57.5562 40.3146 58.0329C40.6928 57.9842 41.0684 57.9412 41.4394 57.9045C43.3875 57.712 45.6221 57.6483 47.4773 58.1158C48.9264 58.481 50.5611 59.0905 51.9649 60.1364C53.4271 61.2258 54.7614 62.8997 55.0911 65.2261C55.2341 66.2355 55.189 67.1798 55.0069 68.0346C55.5969 69.0827 55.9989 70.3783 55.9989 71.9142C55.9989 73.5641 55.5344 74.9593 54.8988 76.0719C55.2141 77.136 55.4595 78.6648 54.9683 80.336C54.5509 81.7564 53.8906 82.8636 53.141 83.7236C53.3364 84.7388 53.3504 85.991 52.8226 87.321C52.3145 88.6016 51.4244 89.5572 50.6236 90.2213C49.7865 90.9156 48.8128 91.4865 47.8032 91.9391C45.7885 92.8421 43.3067 93.4195 40.7113 93.4195C38.8293 93.4195 34.8751 93.0279 31.0525 92.6325C30.2785 92.5524 29.501 92.4711 28.732 92.3907L28.7312 92.3907C25.5333 92.0563 22.482 91.7373 20.4429 91.5851C20.0307 91.5543 19.637 91.4618 19.2705 91.317ZM20.7408 86.2866V87.5962C22.8455 87.7533 25.9801 88.0811 29.1827 88.416L29.1828 88.416C33.9071 88.91 38.7793 89.4195 40.7113 89.4195C44.7633 89.4195 48.41 87.5962 49.1047 85.8456C49.2216 85.5509 49.2677 85.2551 49.2643 84.9668C49.253 83.9916 48.6765 83.1014 48.3661 82.6222L48.366 82.6221C48.314 82.5418 48.2695 82.4731 48.2364 82.4174C48.6551 82.2486 49.1464 81.9928 49.6158 81.5963C50.2281 81.0792 50.803 80.3229 51.1307 79.2081C51.539 77.8188 50.7678 76.3696 50.3862 75.6524C50.3375 75.5609 50.2951 75.4813 50.2624 75.4153C50.8412 75.0263 51.9989 73.7814 51.9989 71.9142C51.9989 71.5061 51.9436 71.1371 51.8512 70.8064C51.5206 69.6241 50.7147 68.9329 50.2624 68.7049C50.5439 68.4921 51 67.9066 51.1362 66.9712C51.1867 66.6243 51.1933 66.2293 51.1307 65.7874C50.8412 63.7451 48.8152 62.5781 46.4998 61.9946C44.1844 61.4111 39.843 61.9946 36.0804 62.8698C36.0623 62.7967 36.0453 62.7235 36.0294 62.6504C35.745 61.3424 35.8133 60.037 36.038 58.7798C36.2491 57.5989 36.5982 56.4605 36.9226 55.4025C37.1579 54.6352 37.3802 53.9102 37.5276 53.2419C38.1064 50.6161 37.5276 47.6986 36.3699 46.2398C35.2121 44.781 32.6073 44.781 31.739 45.3645C31.0444 45.8314 31.2566 48.4766 31.4496 49.7409C30.4848 52.0749 28.208 57.3265 26.8187 59.6605C26.1439 60.7943 25.338 61.873 24.5028 62.9908L24.5028 62.9908C23.1888 64.7495 21.8025 66.605 20.7408 68.9239V71.1655C20.7416 71.2178 20.742 71.2702 20.742 71.3228V86.1293C20.742 86.1818 20.7416 86.2343 20.7408 86.2866Z"/>
</mask>
<path d="M16.7408 71.2015H20.7408V71.1609L20.7399 71.1204L16.7408 71.2015ZM16.7408 86.2506L20.7399 86.3316L20.7408 86.2911V86.2506H16.7408ZM19.2705 91.317L20.74 87.5967L17.6294 86.368L15.8692 89.2119L19.2705 91.317ZM18.3508 64.8813L15.321 67.4929L18.9597 71.7143L21.7947 66.916L18.3508 64.8813ZM20.5564 61.5954L23.7798 63.964L23.7798 63.964L20.5564 61.5954ZM21.3797 60.4863L24.5851 62.8792L24.5913 62.8707L21.3797 60.4863ZM21.3803 60.4856L18.1749 58.0928L18.1686 58.1012L21.3803 60.4856ZM23.3815 57.6146L26.8187 59.6605L26.8187 59.6605L23.3815 57.6146ZM27.3518 49.1709L31.0353 50.7304L31.4294 49.7995L31.3339 48.7931L27.3518 49.1709ZM27.2617 47.2097L23.2619 47.1657V47.1657L27.2617 47.2097ZM27.4706 45.1922L31.3736 46.0675V46.0675L27.4706 45.1922ZM29.5079 42.0446L27.2768 38.7246V38.7246L29.5079 42.0446ZM32.0566 41.0967L31.4471 37.1434H31.4471L32.0566 41.0967ZM34.4263 41.0653L33.9459 45.0363L34.4263 41.0653ZM39.5031 43.7532L42.6363 41.2667L42.6363 41.2667L39.5031 43.7532ZM41.54 48.6135L45.4801 47.9237L45.4801 47.9237L41.54 48.6135ZM41.4338 54.103L37.5276 53.2419L37.5276 53.2419L41.4338 54.103ZM40.7727 56.4911L36.9485 55.3183L36.9221 55.4044L36.8996 55.4915L40.7727 56.4911ZM40.7726 56.4911L44.5968 57.664L44.6232 57.5779L44.6457 57.4907L40.7726 56.4911ZM40.7594 56.5343L36.9352 55.3614L36.9351 55.3617L40.7594 56.5343ZM40.3146 58.0329L36.4589 56.9681L34.8574 62.7675L40.8247 62.0002L40.3146 58.0329ZM41.4394 57.9045L41.046 53.9239L41.4394 57.9045ZM47.4773 58.1158L48.4548 54.2371L47.4773 58.1158ZM51.9649 60.1364L54.3547 56.9288L51.9649 60.1364ZM55.0911 65.2261L51.1307 65.7874V65.7874L55.0911 65.2261ZM55.0069 68.0346L51.0947 67.201L50.7797 68.6795L51.5212 69.9968L55.0069 68.0346ZM54.8988 76.0719L51.4255 74.0881L50.5785 75.5709L51.0636 77.2082L54.8988 76.0719ZM54.9683 80.336L58.806 81.464V81.464L54.9683 80.336ZM53.141 83.7236L50.1257 81.0952L48.8445 82.565L49.2131 84.4798L53.141 83.7236ZM52.8226 87.321L56.5406 88.7963L56.5406 88.7963L52.8226 87.321ZM50.6236 90.2213L48.07 87.1426L48.07 87.1426L50.6236 90.2213ZM47.8032 91.9391L46.167 88.289L46.167 88.289L47.8032 91.9391ZM31.0525 92.6325L31.4641 88.6537L31.0525 92.6325ZM28.732 92.3907L29.1479 88.4124L29.1376 88.4113L29.1272 88.4103L28.732 92.3907ZM28.7312 92.3907L28.3153 96.369L28.3256 96.3701L28.336 96.3711L28.7312 92.3907ZM20.4429 91.5851L20.1451 95.574H20.1451L20.4429 91.5851ZM20.7408 86.2866L16.7413 86.2241L16.7408 86.2553V86.2866H20.7408ZM20.7408 87.5962H16.7408V91.3086L20.4429 91.5851L20.7408 87.5962ZM29.1827 88.416L29.6244 84.4405L29.6115 84.439L29.5987 84.4377L29.1827 88.416ZM29.1828 88.416L28.741 92.3915L28.7539 92.393L28.7668 92.3943L29.1828 88.416ZM49.1047 85.8456L52.8226 87.321L52.8226 87.321L49.1047 85.8456ZM49.2643 84.9668L45.2646 85.0133V85.0133L49.2643 84.9668ZM48.3661 82.6222L44.9361 84.6802L44.9714 84.739L45.0087 84.7966L48.3661 82.6222ZM48.366 82.6221L51.796 80.5641L51.7607 80.5052L51.7234 80.4476L48.366 82.6221ZM48.2364 82.4174L46.7405 78.7076L42.4123 80.4529L44.7991 84.4632L48.2364 82.4174ZM49.6158 81.5963L52.1968 84.6523L52.1968 84.6522L49.6158 81.5963ZM51.1307 79.2081L47.293 78.0801L47.293 78.0802L51.1307 79.2081ZM50.3862 75.6524L53.9174 73.7734L53.9173 73.7734L50.3862 75.6524ZM50.2624 75.4153L48.0313 72.0953L45.1208 74.0513L46.679 77.1927L50.2624 75.4153ZM51.8512 70.8064L55.7034 69.7292L55.7034 69.7292L51.8512 70.8064ZM50.2624 68.7049L47.8501 65.5142L42.7279 69.3867L48.462 72.2769L50.2624 68.7049ZM51.1362 66.9712L47.178 66.3946L47.178 66.3947L51.1362 66.9712ZM51.1307 65.7874L55.0911 65.2261L55.0911 65.2261L51.1307 65.7874ZM46.4998 61.9946L47.4773 58.1158L46.4998 61.9946ZM36.0804 62.8698L32.198 63.8327L33.147 67.659L36.9867 66.7658L36.0804 62.8698ZM36.0294 62.6504L32.1207 63.5001L32.1207 63.5002L36.0294 62.6504ZM36.038 58.7798L39.9756 59.4836V59.4836L36.038 58.7798ZM36.9226 55.4025L40.7469 56.5752L40.7469 56.5752L36.9226 55.4025ZM37.5276 53.2419L41.4338 54.1031L41.4338 54.103L37.5276 53.2419ZM36.3699 46.2398L33.2367 48.7264V48.7264L36.3699 46.2398ZM31.739 45.3645L29.5079 42.0446V42.0446L31.739 45.3645ZM31.4496 49.7409L35.1462 51.2689L35.5719 50.239L35.4038 49.1374L31.4496 49.7409ZM26.8187 59.6605L23.3815 57.6146V57.6146L26.8187 59.6605ZM24.5028 62.9908L21.2984 60.5967L21.2341 60.6827L21.1746 60.772L24.5028 62.9908ZM24.5028 62.9908L27.7072 65.385L27.7714 65.299L27.831 65.2096L24.5028 62.9908ZM20.7408 68.9239L17.1039 67.2587L16.7408 68.0517V68.9239H20.7408ZM20.7408 71.1655H16.7408V71.1967L16.7413 71.228L20.7408 71.1655ZM20.7399 71.1204C20.6313 65.7613 16.2549 61.4518 10.871 61.4518V69.4518C11.8909 69.4518 12.721 70.2687 12.7416 71.2825L20.7399 71.1204ZM10.871 61.4518C5.4194 61.4518 1 65.8712 1 71.3228H9C9 70.2895 9.83768 69.4518 10.871 69.4518V61.4518ZM1 71.3228V86.1293H9V71.3228H1ZM1 86.1293C1 91.5809 5.4194 96.0003 10.871 96.0003V88.0003C9.83768 88.0003 9 87.1626 9 86.1293H1ZM10.871 96.0003C16.2549 96.0003 20.6313 91.6908 20.7399 86.3316L12.7416 86.1695C12.721 87.1833 11.8909 88.0003 10.871 88.0003V96.0003ZM20.7408 86.2506V71.2015H12.7408V86.2506H20.7408ZM10.871 100C15.862 100 20.2334 97.3616 22.6717 93.4222L15.8692 89.2119C14.8281 90.894 12.9771 92.0003 10.871 92.0003V100ZM-3 86.1293C-3 93.79 3.21026 100 10.871 100V92.0003C7.62854 92.0003 5 89.3717 5 86.1293H-3ZM-3 71.3228V86.1293H5V71.3228H-3ZM10.871 57.4518C3.21026 57.4518 -3 63.662 -3 71.3228H5C5 68.0803 7.62854 65.4518 10.871 65.4518V57.4518ZM21.3806 62.2698C18.843 59.3257 15.0736 57.4518 10.871 57.4518V65.4518C12.6485 65.4518 14.2383 66.2368 15.321 67.4929L21.3806 62.2698ZM21.7947 66.916C22.4241 65.8505 23.1003 64.8886 23.7798 63.964L17.3331 59.2269C16.5917 60.2357 15.7353 61.4446 14.907 62.8466L21.7947 66.916ZM23.7798 63.964C24.0624 63.5794 24.3273 63.2244 24.5851 62.8792L18.1743 58.0935C17.9182 58.4366 17.6361 58.8145 17.3331 59.2269L23.7798 63.964ZM24.5913 62.8707L24.5919 62.87L18.1686 58.1012L18.1681 58.1019L24.5913 62.8707ZM24.5856 62.8784C25.3617 61.8388 26.1344 60.8103 26.8187 59.6605L19.9443 55.5688C19.5125 56.2943 19.0044 56.9815 18.1749 58.0928L24.5856 62.8784ZM26.8187 59.6605C28.0537 57.5857 29.9684 53.2504 31.0353 50.7304L23.6683 47.6115C22.5538 50.244 20.8482 54.0501 19.9443 55.5688L26.8187 59.6605ZM31.3339 48.7931C31.2857 48.2846 31.256 47.7461 31.2615 47.2537L23.2619 47.1657C23.2526 48.0119 23.3027 48.8423 23.3697 49.5487L31.3339 48.7931ZM31.2615 47.2537C31.2663 46.8166 31.2986 46.402 31.3736 46.0675L23.5675 44.3168C23.3178 45.4305 23.2696 46.4737 23.2619 47.1657L31.2615 47.2537ZM31.3736 46.0675C31.4031 45.9359 31.4397 45.7919 31.5173 45.6385C31.5907 45.4935 31.6638 45.4151 31.739 45.3645L27.2768 38.7246C24.358 40.6861 23.7049 43.7043 23.5675 44.3168L31.3736 46.0675ZM31.739 45.3645C31.9565 45.2184 32.2825 45.1091 32.6661 45.05L31.4471 37.1434C30.4488 37.2973 28.8424 37.6725 27.2768 38.7246L31.739 45.3645ZM32.6661 45.05C33.0504 44.9907 33.4936 44.9816 33.9459 45.0363L34.9066 37.0942C33.7628 36.9559 32.5854 36.9679 31.4471 37.1434L32.6661 45.05ZM33.9459 45.0363C34.8608 45.147 35.7955 45.5161 36.3699 46.2398L42.6363 41.2667C40.2616 38.2744 36.968 37.3436 34.9066 37.0942L33.9459 45.0363ZM36.3699 46.2398C36.9483 46.9687 37.3827 48.0624 37.5999 49.3032L45.4801 47.9237C45.118 45.8552 44.3042 43.3683 42.6363 41.2667L36.3699 46.2398ZM37.5999 49.3032C37.817 50.5434 37.817 51.9292 37.5276 53.2419L45.34 54.9642C45.8731 52.5458 45.8614 50.1018 45.4801 47.9237L37.5999 49.3032ZM37.5276 53.2419C37.3859 53.8844 37.1737 54.5837 36.9485 55.3183L44.5969 57.6639C44.8067 56.9798 45.1174 55.9738 45.34 54.9641L37.5276 53.2419ZM36.8996 55.4915L36.8995 55.4916L44.6457 57.4907L44.6458 57.4906L36.8996 55.4915ZM36.9485 55.3182L36.9352 55.3614L44.5836 57.7072L44.5968 57.664L36.9485 55.3182ZM36.9351 55.3617C36.7748 55.8846 36.6081 56.4278 36.4589 56.9681L44.1703 59.0976C44.2843 58.6846 44.4169 58.2508 44.5837 57.7069L36.9351 55.3617ZM40.8247 62.0002C41.1669 61.9562 41.5035 61.9177 41.8328 61.8852L41.046 53.9239C40.6334 53.9647 40.2188 54.0123 39.8045 54.0655L40.8247 62.0002ZM41.8328 61.8852C43.6739 61.7032 45.3401 61.7023 46.4998 61.9946L48.4548 54.2371C45.904 53.5943 43.1011 53.7208 41.046 53.9239L41.8328 61.8852ZM46.4998 61.9946C47.6572 62.2862 48.7427 62.7238 49.575 63.3439L54.3547 56.9288C52.3795 55.4571 50.1957 54.6758 48.4548 54.2371L46.4998 61.9946ZM49.575 63.3439C50.4138 63.9689 50.9869 64.7728 51.1307 65.7874L59.0515 64.6649C58.5359 61.0265 56.4404 58.4827 54.3547 56.9288L49.575 63.3439ZM51.1307 65.7874C51.208 66.3332 51.179 66.8054 51.0947 67.201L58.919 68.8682C59.199 67.5542 59.2602 66.1377 59.0515 64.6648L51.1307 65.7874ZM51.5212 69.9968C51.7926 70.4789 51.9989 71.1026 51.9989 71.9142H59.9989C59.9989 69.654 59.4012 67.6866 58.4925 66.0724L51.5212 69.9968ZM51.9989 71.9142C51.9989 72.7869 51.7586 73.5048 51.4255 74.0881L58.3722 78.0558C59.3101 76.4137 59.9989 74.3413 59.9989 71.9142H51.9989ZM51.0636 77.2082C51.2516 77.8428 51.3287 78.5344 51.1307 79.2081L58.806 81.464C59.5904 78.7953 59.1765 76.4292 58.7341 74.9357L51.0636 77.2082ZM51.1307 79.2081C50.8821 80.0536 50.511 80.6532 50.1257 81.0952L56.1562 86.3519C57.2702 85.074 58.2196 83.4592 58.806 81.464L51.1307 79.2081ZM49.2131 84.4798C49.2988 84.9251 49.2909 85.3764 49.1047 85.8457L56.5406 88.7963C57.4099 86.6056 57.374 84.5525 57.0688 82.9674L49.2131 84.4798ZM49.1047 85.8456C48.9312 86.2827 48.5735 86.7249 48.07 87.1426L53.1772 93.3001C54.2752 92.3894 55.6977 90.9205 56.5406 88.7963L49.1047 85.8456ZM48.07 87.1426C47.5671 87.5597 46.9195 87.9517 46.167 88.289L49.4393 95.5891C50.706 95.0213 52.006 94.2716 53.1772 93.3001L48.07 87.1426ZM46.167 88.289C44.6619 88.9637 42.7372 89.4195 40.7113 89.4195V97.4195C43.8762 97.4195 46.9152 96.7206 49.4393 95.5891L46.167 88.289ZM40.7113 89.4195C39.0899 89.4195 35.3974 89.0606 31.4641 88.6537L30.6408 96.6112C34.3529 96.9953 38.5686 97.4195 40.7113 97.4195V89.4195ZM31.4641 88.6537C30.6927 88.5739 29.9173 88.4929 29.1479 88.4124L28.3161 96.369C29.0848 96.4494 29.8644 96.5309 30.6408 96.6112L31.4641 88.6537ZM29.1272 88.4103L29.1264 88.4102L28.336 96.3711L28.3368 96.3712L29.1272 88.4103ZM29.1471 88.4123C25.9765 88.0809 22.8536 87.7539 20.7408 87.5962L20.1451 95.574C22.1104 95.7207 25.0902 96.0318 28.3153 96.369L29.1471 88.4123ZM20.7408 87.5962L20.74 87.5967L17.801 95.0373C18.5377 95.3283 19.3261 95.5128 20.1451 95.574L20.7408 87.5962ZM16.7408 86.2866V87.5962H24.7408V86.2866H16.7408ZM20.4429 91.5851C22.474 91.7367 25.5374 92.0566 28.7667 92.3943L29.5987 84.4377C26.4229 84.1056 23.2171 83.7699 21.0386 83.6073L20.4429 91.5851ZM28.7409 92.3915L28.741 92.3915L29.6245 84.4405L29.6244 84.4405L28.7409 92.3915ZM28.7668 92.3943C33.3364 92.8722 38.5089 93.4195 40.7113 93.4195V85.4195C39.0498 85.4195 34.4778 84.9479 29.5988 84.4377L28.7668 92.3943ZM40.7113 93.4195C43.3067 93.4195 45.7885 92.8421 47.8032 91.9391C48.8128 91.4865 49.7865 90.9156 50.6236 90.2213C51.4244 89.5572 52.3145 88.6016 52.8226 87.321L45.3867 84.3703C45.5475 83.965 45.7213 83.8938 45.5163 84.0638C45.3476 84.2037 45.0262 84.4169 44.5308 84.639C43.5354 85.0852 42.1678 85.4195 40.7113 85.4195V93.4195ZM52.8226 87.321C53.1506 86.4944 53.2729 85.6755 53.2641 84.9203L45.2646 85.0133C45.2625 84.8347 45.2926 84.6073 45.3867 84.3703L52.8226 87.321ZM53.2641 84.9203C53.2373 82.618 51.9454 80.7904 51.7235 80.4478L45.0087 84.7966C45.0881 84.9192 45.1398 84.9998 45.1897 85.0844C45.2376 85.1658 45.2685 85.2256 45.2878 85.2678C45.3075 85.311 45.3052 85.3147 45.2965 85.2819C45.2876 85.2483 45.2663 85.155 45.2646 85.0133L53.2641 84.9203ZM51.7961 80.5642L51.796 80.5641L44.9361 84.6801L44.9361 84.6802L51.7961 80.5642ZM51.7234 80.4476C51.71 80.427 51.6994 80.4106 51.6896 80.3954C51.68 80.3805 51.6731 80.3697 51.6679 80.3616C51.6626 80.3534 51.6607 80.3503 51.6611 80.3509C51.6614 80.3513 51.666 80.3588 51.6736 80.3716L44.7991 84.4632C44.8798 84.5987 44.972 84.74 45.0087 84.7965L51.7234 80.4476ZM49.7322 86.1272C50.4385 85.8424 51.3253 85.3883 52.1968 84.6523L47.0349 78.5404C46.9676 78.5972 46.8716 78.6548 46.7405 78.7076L49.7322 86.1272ZM52.1968 84.6522C53.3695 83.6618 54.406 82.2494 54.9683 80.336L47.293 78.0802C47.2405 78.2586 47.1837 78.3594 47.1485 78.4124C47.1123 78.4669 47.0751 78.5065 47.0349 78.5404L52.1968 84.6522ZM54.9683 80.336C55.4725 78.6205 55.198 77.0593 54.883 76.0189C54.567 74.9756 54.1025 74.1213 53.9174 73.7734L46.855 77.5314C46.9519 77.7136 47.0233 77.8493 47.0907 77.995C47.1568 78.1379 47.2001 78.251 47.2263 78.3376C47.253 78.4257 47.2499 78.4468 47.2476 78.4103C47.245 78.3674 47.2442 78.246 47.293 78.0801L54.9683 80.336ZM53.9173 73.7734C53.8917 73.7251 53.8747 73.6932 53.8605 73.6661C53.8462 73.6388 53.843 73.6323 53.8458 73.6379L46.679 77.1927C46.7427 77.3212 46.8156 77.4574 46.855 77.5315L53.9173 73.7734ZM52.4935 78.7352C53.871 77.8095 55.9989 75.4453 55.9989 71.9142H47.9989C47.9989 71.9626 47.9921 71.9974 47.9831 72.0269C47.973 72.06 47.9566 72.0972 47.9327 72.1364C47.9076 72.1775 47.8833 72.206 47.8735 72.2164C47.8694 72.2206 47.8751 72.2142 47.8941 72.1978C47.9108 72.1834 47.9552 72.1464 48.0313 72.0953L52.4935 78.7352ZM55.9989 71.9142C55.9989 71.1404 55.8935 70.409 55.7034 69.7292L47.999 71.8837C47.9968 71.876 47.9966 71.8731 47.997 71.8761C47.9974 71.8792 47.9989 71.8914 47.9989 71.9142H55.9989ZM55.7034 69.7292C55.0385 67.3515 53.4101 65.8121 52.0627 65.133L48.462 72.2769C48.2938 72.1921 48.1975 72.1197 48.1578 72.088C48.1106 72.0503 48.0828 72.0212 48.0659 72.0015C48.0302 71.9599 48.0085 71.9178 47.999 71.8837L55.7034 69.7292ZM52.6747 71.8957C53.8557 71.0028 54.8179 69.4463 55.0945 67.5477L47.178 66.3947C47.1851 66.3458 47.2096 66.2486 47.2838 66.1192C47.3199 66.0563 47.3725 65.9772 47.4501 65.886C47.5206 65.803 47.6481 65.6669 47.8501 65.5142L52.6747 71.8957ZM55.0944 67.5477C55.2009 66.8167 55.2062 66.0385 55.0911 65.2261L47.1702 66.3486C47.1755 66.386 47.1759 66.4069 47.1759 66.4124C47.1759 66.418 47.1755 66.4116 47.178 66.3946L55.0944 67.5477ZM55.0911 65.2261C54.7614 62.8997 53.4271 61.2258 51.9649 60.1364C50.5611 59.0905 48.9264 58.481 47.4773 58.1158L45.5223 65.8733C46.3886 66.0916 46.9246 66.3574 47.1851 66.5515C47.2982 66.6358 47.3023 66.6644 47.2685 66.6131C47.2259 66.5482 47.1844 66.4488 47.1702 66.3486L55.0911 65.2261ZM47.4773 58.1158C45.6221 57.6483 43.3875 57.712 41.4394 57.9045C39.3807 58.108 37.1788 58.5075 35.1741 58.9739L36.9867 66.7658C38.7446 66.3569 40.5947 66.027 42.2262 65.8658C43.9683 65.6936 45.0621 65.7573 45.5223 65.8733L47.4773 58.1158ZM39.9628 61.907C39.9541 61.8717 39.9458 61.8362 39.9381 61.8006L32.1207 63.5002C32.1447 63.6108 32.1705 63.7216 32.198 63.8327L39.9628 61.907ZM39.9381 61.8006C39.8002 61.1664 39.8082 60.4203 39.9756 59.4836L32.1004 58.076C31.8184 59.6538 31.6898 61.5185 32.1207 63.5001L39.9381 61.8006ZM39.9756 59.4836C40.1374 58.5784 40.4122 57.6667 40.7469 56.5752L33.0984 54.2298C32.7842 55.2544 32.3608 56.6194 32.1004 58.076L39.9756 59.4836ZM40.7469 56.5752C40.97 55.8476 41.245 54.9595 41.4338 54.1031L33.6214 52.3808C33.5155 52.861 33.3458 53.4229 33.0984 54.2298L40.7469 56.5752ZM41.4338 54.103C41.845 52.2375 41.8392 50.3226 41.54 48.6135C41.2503 46.9588 40.6262 45.1685 39.5031 43.7532L33.2367 48.7264C33.2342 48.7233 33.309 48.8216 33.407 49.0666C33.5015 49.3025 33.5938 49.6158 33.6598 49.993C33.7948 50.7638 33.7889 51.6206 33.6214 52.3808L41.4338 54.103ZM39.5031 43.7532C38.0286 41.8953 35.9144 41.2453 34.4263 41.0653C33.6282 40.9687 32.8179 40.9793 32.0566 41.0967C31.3657 41.2032 30.3995 41.4454 29.5079 42.0446L33.9701 48.6845C33.7117 48.8582 33.5063 48.9352 33.4221 48.9637C33.3719 48.9807 33.3349 48.9904 33.3129 48.9956C33.2905 49.0009 33.2779 49.0029 33.2756 49.0033C33.2726 49.0038 33.293 49.0006 33.3335 49.0001C33.373 48.9996 33.4187 49.0017 33.4655 49.0074C33.5713 49.0202 33.6129 49.0417 33.5902 49.0311C33.5631 49.0185 33.4054 48.939 33.2367 48.7264L39.5031 43.7532ZM29.5079 42.0446C27.96 43.0848 27.5758 44.7231 27.4706 45.1922C27.3082 45.9162 27.2679 46.6451 27.2617 47.2097C27.249 48.3686 27.3776 49.573 27.4954 50.3444L35.4038 49.1374C35.3286 48.6445 35.2547 47.8941 35.2612 47.2976C35.2647 46.9845 35.2895 46.8856 35.2767 46.9428C35.2695 46.9748 35.226 47.168 35.0902 47.437C34.9615 47.6921 34.6391 48.235 33.9701 48.6845L29.5079 42.0446ZM27.7529 48.2129C26.7667 50.5988 24.5963 55.5738 23.3815 57.6146L30.256 61.7064C31.8197 59.0792 34.2029 53.551 35.1462 51.2689L27.7529 48.2129ZM23.3815 57.6146C22.8327 58.5367 22.1577 59.4466 21.2984 60.5967L27.7072 65.385C28.5182 64.2994 29.4551 63.0519 30.256 61.7064L23.3815 57.6146ZM21.1746 60.772L21.1746 60.772L27.831 65.2096L27.831 65.2096L21.1746 60.772ZM21.2984 60.5967C20.0062 62.3263 18.3672 64.4994 17.1039 67.2587L24.3777 70.5891C25.2378 68.7105 26.3714 67.1728 27.7072 65.385L21.2984 60.5967ZM16.7408 68.9239V71.1655H24.7408V68.9239H16.7408ZM24.742 71.3228C24.742 71.2494 24.7414 71.1761 24.7403 71.1029L16.7413 71.228C16.7418 71.2595 16.742 71.2911 16.742 71.3228H24.742ZM24.742 86.1293V71.3228H16.742V86.1293H24.742ZM24.7403 86.3491C24.7414 86.2759 24.742 86.2026 24.742 86.1293H16.742C16.742 86.161 16.7418 86.1926 16.7413 86.2241L24.7403 86.3491Z" fill="url(#paint0_linear)" mask="url(#path-1-inside-1)"/>
<mask id="path-3-inside-2" fill="white">
<path fill-rule="evenodd" clip-rule="evenodd" d="M199.5 92C212.479 92 223 81.4787 223 68.5C223 55.5213 212.479 45 199.5 45C186.521 45 176 55.5213 176 68.5C176 81.4787 186.521 92 199.5 92ZM199.5 96C214.688 96 227 83.6878 227 68.5C227 53.3122 214.688 41 199.5 41C184.312 41 172 53.3122 172 68.5C172 83.6878 184.312 96 199.5 96ZM197.781 60.1875C196.038 60.1875 194.625 61.6006 194.625 63.3438V63.8594C194.625 65.3178 195.807 66.5 197.266 66.5H200.533C204.485 66.5 207.689 69.704 207.689 73.6562C207.689 77.4038 204.808 80.4786 201.141 80.7871V82.2145C201.141 83.3191 200.245 84.2145 199.141 84.2145C198.036 84.2145 197.141 83.3191 197.141 82.2145V80.8125H194.002C192.897 80.8125 192.002 79.9171 192.002 78.8125C192.002 77.7079 192.897 76.8125 194.002 76.8125H200.533C202.276 76.8125 203.689 75.3994 203.689 73.6562C203.689 71.9131 202.276 70.5 200.533 70.5H197.266H197.095V70.4979C193.507 70.4075 190.625 67.47 190.625 63.8594V63.3438C190.625 59.6074 193.488 56.5398 197.141 56.2158V54.7861C197.141 53.6816 198.036 52.7861 199.141 52.7861C200.245 52.7861 201.141 53.6816 201.141 54.7861V56.1875H204.312C205.417 56.1875 206.312 57.0829 206.312 58.1875C206.312 59.2921 205.417 60.1875 204.312 60.1875H197.781Z"/>
</mask>
<path d="M201.141 80.7871L200.805 76.8011L197.141 77.1093V80.7871H201.141ZM197.141 80.8125H201.141V76.8125H197.141V80.8125ZM197.095 70.5H193.095V74.5H197.095V70.5ZM197.095 70.4979H201.095V66.5973L197.196 66.4991L197.095 70.4979ZM197.141 56.2158L197.494 60.2001L201.141 59.8766V56.2158H197.141ZM201.141 56.1875H197.141V60.1875H201.141V56.1875ZM219 68.5C219 79.2696 210.27 88 199.5 88V96C214.688 96 227 83.6878 227 68.5H219ZM199.5 49C210.27 49 219 57.7304 219 68.5H227C227 53.3122 214.688 41 199.5 41V49ZM180 68.5C180 57.7304 188.73 49 199.5 49V41C184.312 41 172 53.3122 172 68.5H180ZM199.5 88C188.73 88 180 79.2696 180 68.5H172C172 83.6878 184.312 96 199.5 96V88ZM223 68.5C223 81.4787 212.479 92 199.5 92V100C216.897 100 231 85.897 231 68.5H223ZM199.5 45C212.479 45 223 55.5213 223 68.5H231C231 51.103 216.897 37 199.5 37V45ZM176 68.5C176 55.5213 186.521 45 199.5 45V37C182.103 37 168 51.103 168 68.5H176ZM199.5 92C186.521 92 176 81.4787 176 68.5H168C168 85.897 182.103 100 199.5 100V92ZM198.625 63.3438C198.625 63.8097 198.247 64.1875 197.781 64.1875V56.1875C193.829 56.1875 190.625 59.3915 190.625 63.3438H198.625ZM198.625 63.8594V63.3438H190.625V63.8594H198.625ZM197.266 62.5C198.016 62.5 198.625 63.1086 198.625 63.8594H190.625C190.625 67.5269 193.598 70.5 197.266 70.5V62.5ZM200.533 62.5H197.266V70.5H200.533V62.5ZM211.689 73.6562C211.689 67.4948 206.694 62.5 200.533 62.5V70.5C202.276 70.5 203.689 71.9131 203.689 73.6562H211.689ZM201.476 84.773C207.198 84.2917 211.689 79.5006 211.689 73.6562H203.689C203.689 75.3071 202.419 76.6654 200.805 76.8011L201.476 84.773ZM197.141 80.7871V82.2145H205.141V80.7871H197.141ZM197.141 82.2145C197.141 81.1099 198.036 80.2145 199.141 80.2145V88.2145C202.454 88.2145 205.141 85.5282 205.141 82.2145H197.141ZM199.141 80.2145C200.245 80.2145 201.141 81.1099 201.141 82.2145H193.141C193.141 85.5282 195.827 88.2145 199.141 88.2145V80.2145ZM201.141 82.2145V80.8125H193.141V82.2145H201.141ZM194.002 84.8125H197.141V76.8125H194.002V84.8125ZM188.002 78.8125C188.002 82.1262 190.688 84.8125 194.002 84.8125V76.8125C195.106 76.8125 196.002 77.7079 196.002 78.8125H188.002ZM194.002 72.8125C190.688 72.8125 188.002 75.4988 188.002 78.8125H196.002C196.002 79.9171 195.106 80.8125 194.002 80.8125V72.8125ZM200.533 72.8125H194.002V80.8125H200.533V72.8125ZM199.689 73.6562C199.689 73.1903 200.067 72.8125 200.533 72.8125V80.8125C204.485 80.8125 207.689 77.6085 207.689 73.6562H199.689ZM200.533 74.5C200.067 74.5 199.689 74.1222 199.689 73.6562H207.689C207.689 69.704 204.485 66.5 200.533 66.5V74.5ZM197.266 74.5H200.533V66.5H197.266V74.5ZM197.095 74.5H197.266V66.5H197.095V74.5ZM193.095 70.4979V70.5H201.095V70.4979H193.095ZM186.625 63.8594C186.625 69.6454 191.242 74.3518 196.995 74.4966L197.196 66.4991C195.771 66.4633 194.625 65.2945 194.625 63.8594H186.625ZM186.625 63.3438V63.8594H194.625V63.3438H186.625ZM196.787 52.2314C191.089 52.7369 186.625 57.5168 186.625 63.3438H194.625C194.625 61.698 195.888 60.3427 197.494 60.2001L196.787 52.2314ZM193.141 54.7861V56.2158H201.141V54.7861H193.141ZM199.141 48.7861C195.827 48.7861 193.141 51.4724 193.141 54.7861H201.141C201.141 55.8907 200.245 56.7861 199.141 56.7861V48.7861ZM205.141 54.7861C205.141 51.4724 202.454 48.7861 199.141 48.7861V56.7861C198.036 56.7861 197.141 55.8907 197.141 54.7861H205.141ZM205.141 56.1875V54.7861H197.141V56.1875H205.141ZM204.312 52.1875H201.141V60.1875H204.312V52.1875ZM210.312 58.1875C210.312 54.8738 207.626 52.1875 204.312 52.1875V60.1875C203.208 60.1875 202.312 59.2921 202.312 58.1875H210.312ZM204.312 64.1875C207.626 64.1875 210.312 61.5012 210.312 58.1875H202.312C202.312 57.0829 203.208 56.1875 204.312 56.1875V64.1875ZM197.781 64.1875H204.312V56.1875H197.781V64.1875Z" fill="url(#paint1_linear)" mask="url(#path-3-inside-2)"/>
<mask id="path-5-inside-3" fill="white">
<path fill-rule="evenodd" clip-rule="evenodd" d="M92.1633 52.6392C94.8359 47.9622 91.4588 42.1428 86.072 42.1428H82.9291C81.8246 42.1428 80.9291 43.0383 80.9291 44.1428C80.9291 45.2474 81.8246 46.1428 82.9291 46.1428H86.072C88.3875 46.1428 89.8391 48.6442 88.6903 50.6546L75.8577 73.1117L63.0251 50.6546C61.8763 48.6442 63.3279 46.1428 65.6434 46.1428H68.7863C69.8908 46.1428 70.7863 45.2474 70.7863 44.1428C70.7863 43.0383 69.8908 42.1428 68.7863 42.1428H65.6434C60.2566 42.1428 56.8795 47.9622 59.5521 52.6392L73.253 76.6157C73.4209 76.9096 73.6262 77.1607 73.858 77.3689V79.4999C73.858 87.9814 80.7336 94.8571 89.2151 94.8571C97.2344 94.8571 103.818 88.7105 104.512 80.8716C108.788 79.977 112 76.185 112 71.6429C112 66.4357 107.779 62.2144 102.571 62.2144C97.3642 62.2144 93.1429 66.4357 93.1429 71.6429C93.1429 76.1363 96.2861 79.8956 100.494 80.8418C99.8299 86.4818 95.0335 90.8571 89.2151 90.8571C82.9427 90.8571 77.858 85.7723 77.858 79.4999V77.3684C78.0895 77.1603 78.2946 76.9094 78.4624 76.6157L92.1633 52.6392ZM97.1429 71.6429C97.1429 74.641 99.5733 77.0715 102.571 77.0715C105.57 77.0715 108 74.641 108 71.6429C108 68.6448 105.57 66.2144 102.571 66.2144C99.5733 66.2144 97.1429 68.6448 97.1429 71.6429Z"/>
</mask>
<path d="M92.1633 52.6392L95.6362 54.6238V54.6238L92.1633 52.6392ZM88.6903 50.6546L85.2173 48.6701L85.2173 48.6701L88.6903 50.6546ZM75.8577 73.1117L79.3307 75.0962L75.8577 81.174L72.3847 75.0962L75.8577 73.1117ZM63.0251 50.6546L59.5521 52.6392V52.6392L63.0251 50.6546ZM59.5521 52.6392L56.0792 54.6238V54.6238L59.5521 52.6392ZM73.253 76.6157L76.7259 74.6311L76.7259 74.6311L73.253 76.6157ZM73.858 77.3689L76.5313 74.3935L77.858 75.5855V77.3689H73.858ZM104.512 80.8716L100.527 80.5189L100.789 77.5638L103.693 76.9564L104.512 80.8716ZM100.494 80.8418L101.371 76.9393L104.888 77.7301L104.466 81.3095L100.494 80.8418ZM77.858 77.3684H73.858V75.5856L75.1839 74.3937L77.858 77.3684ZM78.4624 76.6157L81.9354 78.6002L81.9354 78.6002L78.4624 76.6157ZM86.072 38.1428C94.53 38.1428 99.8326 47.2801 95.6362 54.6238L88.6903 50.6546C89.8391 48.6442 88.3875 46.1428 86.072 46.1428V38.1428ZM82.9291 38.1428H86.072V46.1428H82.9291V38.1428ZM76.9291 44.1428C76.9291 40.8291 79.6154 38.1428 82.9291 38.1428V46.1428C84.0337 46.1428 84.9291 45.2474 84.9291 44.1428H76.9291ZM82.9291 50.1428C79.6154 50.1428 76.9291 47.4565 76.9291 44.1428H84.9291C84.9291 43.0383 84.0337 42.1428 82.9291 42.1428V50.1428ZM86.072 50.1428H82.9291V42.1428H86.072V50.1428ZM85.2173 48.6701C84.8423 49.3263 85.3162 50.1428 86.072 50.1428V42.1428C91.4588 42.1428 94.8359 47.9622 92.1633 52.6392L85.2173 48.6701ZM72.3847 71.1271L85.2173 48.6701L92.1633 52.6392L79.3307 75.0962L72.3847 71.1271ZM66.4981 48.6701L79.3307 71.1271L72.3847 75.0962L59.5521 52.6392L66.4981 48.6701ZM65.6434 50.1428C66.3992 50.1428 66.8731 49.3263 66.4981 48.6701L59.5521 52.6392C56.8795 47.9622 60.2566 42.1428 65.6434 42.1428V50.1428ZM68.7863 50.1428H65.6434V42.1428H68.7863V50.1428ZM74.7863 44.1428C74.7863 47.4565 72.1 50.1428 68.7863 50.1428V42.1428C67.6817 42.1428 66.7863 43.0383 66.7863 44.1428H74.7863ZM68.7863 38.1428C72.1 38.1428 74.7863 40.8291 74.7863 44.1428H66.7863C66.7863 45.2474 67.6817 46.1428 68.7863 46.1428V38.1428ZM65.6434 38.1428H68.7863V46.1428H65.6434V38.1428ZM56.0792 54.6238C51.8828 47.2801 57.1854 38.1428 65.6434 38.1428V46.1428C63.3279 46.1428 61.8763 48.6442 63.0251 50.6546L56.0792 54.6238ZM69.78 78.6002L56.0792 54.6238L63.0251 50.6546L76.7259 74.6311L69.78 78.6002ZM71.1846 80.3443C70.6347 79.8503 70.1596 79.2646 69.78 78.6002L76.7259 74.6311C76.6823 74.5547 76.6177 74.4711 76.5313 74.3935L71.1846 80.3443ZM69.858 79.4999V77.3689H77.858V79.4999H69.858ZM89.2151 98.8571C78.5245 98.8571 69.858 90.1906 69.858 79.4999H77.858C77.858 85.7723 82.9427 90.8571 89.2151 90.8571V98.8571ZM108.496 81.2243C107.621 91.1092 99.3252 98.8571 89.2151 98.8571V90.8571C95.1435 90.8571 100.015 86.3119 100.527 80.5189L108.496 81.2243ZM116 71.6429C116 78.1168 111.423 83.5124 105.331 84.7869L103.693 76.9564C106.154 76.4416 108 74.2533 108 71.6429H116ZM102.571 58.2144C109.988 58.2144 116 64.2265 116 71.6429H108C108 68.6448 105.57 66.2144 102.571 66.2144V58.2144ZM89.1429 71.6429C89.1429 64.2265 95.155 58.2144 102.571 58.2144V66.2144C99.5733 66.2144 97.1429 68.6448 97.1429 71.6429H89.1429ZM99.6162 84.7444C93.6227 83.3965 89.1429 78.0477 89.1429 71.6429H97.1429C97.1429 74.225 98.9495 76.3947 101.371 76.9393L99.6162 84.7444ZM89.2151 86.8571C92.9814 86.8571 96.0917 84.0236 96.5212 80.3742L104.466 81.3095C103.568 88.94 97.0856 94.8571 89.2151 94.8571V86.8571ZM81.858 79.4999C81.858 83.5632 85.1519 86.8571 89.2151 86.8571V94.8571C80.7336 94.8571 73.858 87.9814 73.858 79.4999H81.858ZM81.858 77.3684V79.4999H73.858V77.3684H81.858ZM81.9354 78.6002C81.5561 79.264 81.0814 79.8493 80.5321 80.3432L75.1839 74.3937C75.0975 74.4713 75.0331 74.5548 74.9895 74.6311L81.9354 78.6002ZM95.6362 54.6238L81.9354 78.6002L74.9895 74.6311L88.6903 50.6546L95.6362 54.6238ZM102.571 81.0715C97.3642 81.0715 93.1429 76.8502 93.1429 71.6429H101.143C101.143 72.4319 101.782 73.0715 102.571 73.0715V81.0715ZM112 71.6429C112 76.8502 107.779 81.0715 102.571 81.0715V73.0715C103.36 73.0715 104 72.4319 104 71.6429H112ZM102.571 62.2144C107.779 62.2144 112 66.4357 112 71.6429H104C104 70.8539 103.36 70.2144 102.571 70.2144V62.2144ZM93.1429 71.6429C93.1429 66.4357 97.3642 62.2144 102.571 62.2144V70.2144C101.782 70.2144 101.143 70.8539 101.143 71.6429H93.1429Z" fill="url(#paint2_linear)" mask="url(#path-5-inside-3)"/>
<path d="M170 22L172.645 27.3594L178.56 28.2188L174.28 32.3906L175.29 38.2812L170 35.5L164.71 38.2812L165.72 32.3906L161.44 28.2188L167.355 27.3594L170 22Z" fill="#FFD64A"/>
<path d="M16.9144 98C13.0357 98 9.67023 99.4733 6.81818 102.42C4.08021 105.367 2.71123 108.597 2.71123 112.11C2.71123 114.943 3.56684 117.607 5.27807 120.1C7.10339 122.593 9.04278 124.18 11.0963 124.86C10.1836 128.713 6.81818 132.737 1 136.93L6.47594 149C13.549 145.713 19.4242 140.84 24.1016 134.38C28.893 127.807 31.2888 121.233 31.2888 114.66C31.2888 109.787 29.8627 105.82 27.0107 102.76C24.2727 99.5867 20.9073 98 16.9144 98ZM50.7968 98C46.918 98 43.5526 99.4733 40.7005 102.42C37.9626 105.367 36.5936 108.597 36.5936 112.11C36.5936 114.943 37.4492 117.607 39.1604 120.1C40.8717 122.593 42.8111 124.18 44.9786 124.86C44.4082 127.127 43.2103 129.223 41.385 131.15C39.6738 133.077 37.4492 135.003 34.7112 136.93L40.3583 149C47.3173 145.827 53.1355 140.953 57.8128 134.38C62.6043 127.807 65 121.233 65 114.66C65 109.787 63.631 105.82 60.893 102.76C58.1551 99.5867 54.7897 98 50.7968 98Z" fill="white"/>
<path d="M230 24L237 31M237 31L230 38M237 31H211" stroke="#17318B" stroke-width="2" stroke-linecap="round" stroke-linejoin="round"/>
<path d="M188 38L181 31M181 31L188 24M181 31L207 31" stroke="#17318B" stroke-width="2" stroke-linecap="round" stroke-linejoin="round"/>
<path d="M82 98C73.7292 98 67 104.879 67 113.333C67 115.871 67.6208 118.388 68.8009 120.62L81.1797 143.506C81.3445 143.811 81.6585 144 82 144C82.3415 144 82.6555 143.811 82.8203 143.506L95.2037 120.613C96.3792 118.388 97 115.871 97 113.333C97 104.879 90.2708 98 82 98ZM82 121C77.8646 121 74.5 117.561 74.5 113.333C74.5 109.106 77.8646 105.667 82 105.667C86.1354 105.667 89.5 109.106 89.5 113.333C89.5 117.561 86.1354 121 82 121Z" fill="#FF563E"/>
<circle cx="250" cy="29" r="9" stroke="#087CD5" stroke-width="2"/>
<path d="M246.668 29L249.335 31.6667L254.001 27" stroke="#087CD5" stroke-width="2" stroke-linecap="round" stroke-linejoin="round"/>
<path d="M177.619 14.4158L174.994 11.7901C174.471 11.2693 173.605 11.2851 173.063 11.8264L171.741 13.1488C171.657 13.1028 171.571 13.0547 171.48 13.0036C170.645 12.5408 169.501 11.9065 168.298 10.7026C167.092 9.49625 166.457 8.35129 165.993 7.5155C165.944 7.42695 165.897 7.34158 165.85 7.2605L166.738 6.37411L167.175 5.93714C167.717 5.39502 167.731 4.52928 167.21 4.00694L164.584 1.38097C164.063 0.859361 163.196 0.875185 162.654 1.41731L161.914 2.16148L161.935 2.18155C161.687 2.49813 161.479 2.86326 161.325 3.25701C161.183 3.6318 161.094 3.98946 161.054 4.34784C160.707 7.22177 162.02 9.84833 165.584 13.4125C170.511 18.3389 174.481 17.9667 174.653 17.9486C175.026 17.904 175.383 17.8148 175.747 17.6737C176.137 17.5213 176.502 17.3142 176.818 17.0667L176.834 17.081L177.584 16.347C178.125 15.805 178.14 14.939 177.619 14.4158Z" fill="white"/>
<mask id="path-15-inside-4" fill="white">
<path fill-rule="evenodd" clip-rule="evenodd" d="M141.5 41C135.977 41 131.5 45.4772 131.5 51V58.1875H125C119.477 58.1875 115 62.6647 115 68.1875V69.5C115 75.0228 119.477 79.5 125 79.5H131.5V86C131.5 91.5228 135.977 96 141.5 96H142.812C148.335 96 152.812 91.5228 152.812 86V79.5H160C165.523 79.5 170 75.0228 170 69.5V68.1875C170 62.6646 165.523 58.1875 160 58.1875H152.812V51C152.812 45.4772 148.335 41 142.812 41H141.5Z"/>
</mask>
<path d="M131.5 58.1875V62.1875H135.5V58.1875H131.5ZM131.5 79.5H135.5V75.5H131.5V79.5ZM152.812 79.5V75.5H148.812V79.5H152.812ZM152.812 58.1875H148.812V62.1875H152.812V58.1875ZM135.5 51C135.5 47.6863 138.186 45 141.5 45V37C133.768 37 127.5 43.268 127.5 51H135.5ZM135.5 58.1875V51H127.5V58.1875H135.5ZM125 62.1875H131.5V54.1875H125V62.1875ZM119 68.1875C119 64.8738 121.686 62.1875 125 62.1875V54.1875C117.268 54.1875 111 60.4555 111 68.1875H119ZM119 69.5V68.1875H111V69.5H119ZM125 75.5C121.686 75.5 119 72.8137 119 69.5H111C111 77.232 117.268 83.5 125 83.5V75.5ZM131.5 75.5H125V83.5H131.5V75.5ZM135.5 86V79.5H127.5V86H135.5ZM141.5 92C138.186 92 135.5 89.3137 135.5 86H127.5C127.5 93.732 133.768 100 141.5 100V92ZM142.812 92H141.5V100H142.812V92ZM148.812 86C148.812 89.3137 146.126 92 142.812 92V100C150.544 100 156.812 93.732 156.812 86H148.812ZM148.812 79.5V86H156.812V79.5H148.812ZM160 75.5H152.812V83.5H160V75.5ZM166 69.5C166 72.8137 163.314 75.5 160 75.5V83.5C167.732 83.5 174 77.232 174 69.5H166ZM166 68.1875V69.5H174V68.1875H166ZM160 62.1875C163.314 62.1875 166 64.8738 166 68.1875H174C174 60.4555 167.732 54.1875 160 54.1875V62.1875ZM152.812 62.1875H160V54.1875H152.812V62.1875ZM148.812 51V58.1875H156.812V51H148.812ZM142.812 45C146.126 45 148.812 47.6863 148.812 51H156.812C156.812 43.268 150.544 37 142.812 37V45ZM141.5 45H142.812V37H141.5V45Z" fill="url(#paint3_linear)" mask="url(#path-15-inside-4)"/>
<path fill-rule="evenodd" clip-rule="evenodd" d="M24.9333 14.6667C22.8 14.6667 21.3333 15.7333 20.8 16.5333L20.5333 15.2H17.3333V28.1333H20.9333V20.4C20.9333 20 20.9333 19.6 21.0667 19.4667C21.3333 18.8 22.2667 18 23.3333 18C24.8 18 25.7333 19.0667 25.7333 20.8V28.2667H29.3333V20.2667C29.3333 16.2667 27.4667 14.6667 24.9333 14.6667V14.6667ZM11.0667 28H14.6667V15.0667H11.0667V28ZM12.9333 9.33333C11.6 9.33333 10.6667 10.1333 10.6667 11.3333C10.6667 12.5333 11.6 13.3333 12.9333 13.3333C14.4 13.3333 15.2 12.5333 15.2 11.3333C15.0667 10.1333 14.2667 9.33333 12.9333 9.33333V9.33333Z" fill="#FFD64A"/>
<path fill-rule="evenodd" clip-rule="evenodd" d="M55.1616 12.0067C50.9562 11.8694 47.0922 15.4787 47.0216 19.6001C46.7536 22.9694 49.0122 26.2734 52.2042 27.4641C55.3829 28.6641 59.4589 27.8467 61.4882 25.0467C62.8296 23.2787 63.1176 21.0014 62.9616 18.8627C62.9616 18.8627 57.7602 18.8547 55.1616 18.8627C55.1581 19.6404 55.1606 20.4123 55.163 21.1882C55.1634 21.3196 55.1638 21.4511 55.1642 21.5827C56.1182 21.613 57.0736 21.6162 58.0288 21.6193C58.6302 21.6213 59.2315 21.6233 59.8322 21.6321C59.1469 25.0121 54.4549 26.1094 51.9736 23.9014C49.4216 21.9641 49.5429 17.7174 52.1962 15.9187C54.0509 14.4667 56.6882 14.8254 58.5429 16.0827C59.2722 15.4214 59.9536 14.7147 60.6122 13.9814C59.0682 12.7747 57.1749 11.9147 55.1616 12.0067ZM69.6674 16.0003H67.0034C66.9981 16.5011 67.0001 17.0049 67.0021 17.5093C67.0036 17.8952 67.0052 18.2815 67.0034 18.667C66.6081 18.6688 66.2114 18.6674 65.815 18.666C65.3196 18.6643 64.8245 18.6626 64.3328 18.667V21.3323C64.7755 21.337 65.2222 21.3347 65.6688 21.3323C66.1152 21.33 66.5615 21.3277 67.0034 21.3323C67.0082 21.7857 67.006 22.2432 67.0038 22.7007C67.0016 23.1352 66.9995 23.5697 67.0034 24.0003H69.6674C69.6692 23.6176 69.6676 23.2329 69.6661 22.8475C69.6641 22.3426 69.6621 21.8366 69.6674 21.3323C70.1116 21.3277 70.5571 21.33 71.0021 21.3323C71.4467 21.3347 71.8909 21.337 72.3328 21.3323V18.667C71.9021 18.6631 71.4683 18.6652 71.0344 18.6673C70.5776 18.6696 70.1208 18.6718 69.6674 18.667C69.6621 18.1659 69.6641 17.6601 69.6661 17.1549C69.6676 16.7689 69.6692 16.3832 69.6674 16.0003Z" fill="#FFD64A"/>
<path fill-rule="evenodd" clip-rule="evenodd" d="M105.527 14.2973H102.519C102.164 14.2973 101.768 14.764 101.768 15.388V17.56H105.527V20.6547H101.768V29.948H98.2173V20.6547H95V17.56H98.2173V15.7373C98.2173 13.1253 100.032 11 102.519 11H105.527V14.2973Z" fill="#FFD64A"/>
<path fill-rule="evenodd" clip-rule="evenodd" d="M148.236 15.8853C148.243 16.0547 148.248 16.224 148.248 16.396C148.248 21.6013 144.284 27.604 137.039 27.604C134.815 27.604 132.743 26.9507 131 25.8333C131.311 25.8693 131.624 25.888 131.941 25.888C133.787 25.888 135.485 25.2573 136.833 24.2C135.109 24.1693 133.656 23.0307 133.152 21.4667C133.393 21.5133 133.641 21.536 133.895 21.536C134.253 21.536 134.601 21.4893 134.932 21.3987C133.131 21.036 131.771 19.4453 131.771 17.536V17.4867C132.303 17.7813 132.912 17.9587 133.557 17.9787C132.5 17.2733 131.805 16.068 131.805 14.7C131.805 13.9787 131.999 13.3027 132.337 12.7213C134.279 15.104 137.183 16.672 140.456 16.836C140.389 16.5467 140.356 16.2467 140.356 15.9373C140.356 13.7627 142.119 12 144.295 12C145.427 12 146.451 12.476 147.168 13.2427C148.067 13.068 148.909 12.74 149.671 12.2867C149.376 13.208 148.753 13.9787 147.937 14.4667C148.735 14.372 149.495 14.1613 150.203 13.8467C149.672 14.636 149.005 15.3307 148.236 15.8853" fill="#FFD64A"/>
<defs>
<linearGradient id="paint0_linear" x1="1" y1="41" x2="56.0003" y2="95.9989" gradientUnits="userSpaceOnUse">
<stop stop-color="#8EEDFE"/>
<stop offset="1" stop-color="#2393EE"/>
</linearGradient>
<linearGradient id="paint1_linear" x1="172" y1="41" x2="227" y2="96" gradientUnits="userSpaceOnUse">
<stop stop-color="#8EEDFE"/>
<stop offset="1" stop-color="#2393EE"/>
</linearGradient>
<linearGradient id="paint2_linear" x1="112" y1="42.1428" x2="59.2899" y2="95.5212" gradientUnits="userSpaceOnUse">
<stop stop-color="#8EEDFE"/>
<stop offset="1" stop-color="#2393EE"/>
</linearGradient>
<linearGradient id="paint3_linear" x1="115" y1="41" x2="170" y2="96" gradientUnits="userSpaceOnUse">
<stop stop-color="#8EEDFE"/>
<stop offset="1" stop-color="#2393EE"/>
</linearGradient>
</defs>
</svg>
