<svg width="67" height="20" viewBox="0 0 67 20" fill="none" xmlns="http://www.w3.org/2000/svg">
<path fill-rule="evenodd" clip-rule="evenodd" d="M0 3C0 1.34315 1.34315 0 3 0H64C65.6569 0 67 1.34315 67 3V17C67 18.6569 65.6569 20 64 20H3C1.34315 20 0 18.6569 0 17V3Z" fill="#4065B4"/>
<path fill-rule="evenodd" clip-rule="evenodd" d="M5.0048 9.00408C5.0048 9.00408 4.9952 15.4467 5.0048 15.4467H8.0048C8.01454 15.4467 8.01454 9.00408 8.0048 9.00408C8.0048 9.00408 5.0048 8.99592 5.0048 9.00408Z" fill="white"/>
<path fill-rule="evenodd" clip-rule="evenodd" d="M9 14.7905L9.11111 14.842C9.20761 14.8868 9.2991 14.948 9.39884 15.0348C9.85872 15.4341 10.4859 15.4465 10.5013 15.4467L15.6879 15.4447C16.1602 15.4138 16.5291 15.0133 16.5291 14.5295C16.5291 14.3817 16.4952 14.2399 16.4283 14.1082L16.2355 13.7292L16.6477 13.6589C17.0827 13.5845 17.3984 13.204 17.3984 12.7538C17.3984 12.5539 17.3356 12.3632 17.2165 12.202L16.9568 11.85L17.3691 11.7188C17.7462 11.5985 18 11.2459 18 10.8414C18 10.5114 17.8246 10.205 17.5426 10.0418L17.1407 9.80914L17.5087 9.52427C17.7341 9.3497 17.8644 9.08542 17.8663 8.79903C17.8679 8.56779 17.7751 8.34415 17.6049 8.16916C17.4224 7.98132 17.1728 7.87364 16.9201 7.87364H12.9637L13.2808 5.77491C13.3021 5.63157 13.3131 5.48465 13.3131 5.33855C13.3131 4.28586 12.6379 3 11.8498 3C11.7039 3 11.561 3.03912 11.4354 3.11223L11.5797 5.05091C11.5917 5.21332 11.579 5.37476 11.5419 5.53054C11.5057 5.68341 11.4465 5.83006 11.3661 5.96579L9.54068 9.42171L9 9.89387V14.7905Z" fill="white"/>
<path d="M24.8379 6.08301H26.4922V12.5767H30.4131V14H24.8379V6.08301ZM33.0127 7.44727H31.4604V6.03467H33.0127V7.44727ZM31.4604 8.14551H33.0127V14H31.4604V8.14551ZM34.4844 6.10986H35.9883V10.3745L37.895 8.17236H39.791L37.7446 10.4121L39.8716 14H38.0239L36.6221 11.4971L35.9883 12.1577V14H34.4844V6.10986ZM42.9331 9.25195C42.5786 9.25195 42.3029 9.36296 42.106 9.58496C41.9126 9.80697 41.7909 10.1077 41.7407 10.4873H44.1201C44.0951 10.0827 43.9715 9.77653 43.7495 9.56885C43.5311 9.35758 43.259 9.25195 42.9331 9.25195ZM42.9331 7.98975C43.4201 7.98975 43.8587 8.08105 44.249 8.26367C44.6393 8.44629 44.9616 8.73454 45.2158 9.12842C45.445 9.47575 45.5936 9.87858 45.6616 10.3369C45.701 10.6055 45.7171 10.9922 45.71 11.4971H41.7031C41.7246 12.0843 41.909 12.4961 42.2563 12.7324C42.4676 12.8792 42.7218 12.9526 43.019 12.9526C43.3341 12.9526 43.5902 12.8631 43.7871 12.6841C43.8945 12.5874 43.9894 12.4531 44.0718 12.2812H45.6348C45.5954 12.6286 45.4146 12.9813 45.0923 13.3394C44.591 13.9087 43.8892 14.1934 42.9868 14.1934C42.242 14.1934 41.585 13.9535 41.0156 13.4736C40.4463 12.9938 40.1616 12.2132 40.1616 11.1318C40.1616 10.1185 40.4176 9.34147 40.9297 8.80078C41.4453 8.26009 42.1131 7.98975 42.9331 7.98975Z" fill="white"/>
<path d="M50.0527 8.55371V7.8125C50.751 7.74447 51.238 7.63167 51.5137 7.47412C51.7894 7.31299 51.9953 6.93522 52.1313 6.34082H52.894V14H51.8628V8.55371H50.0527ZM58.0986 6.30859C59.0941 6.30859 59.8138 6.71859 60.2578 7.53857C60.6016 8.17236 60.7734 9.04069 60.7734 10.1436C60.7734 11.1891 60.6177 12.0539 60.3062 12.7378C59.855 13.7189 59.1174 14.2095 58.0933 14.2095C57.1694 14.2095 56.4819 13.8084 56.0308 13.0063C55.6548 12.3368 55.4668 11.438 55.4668 10.3101C55.4668 9.43636 55.5796 8.6862 55.8052 8.05957C56.2277 6.89225 56.9922 6.30859 58.0986 6.30859ZM58.0879 13.3286C58.5892 13.3286 58.9884 13.1066 59.2856 12.6626C59.5828 12.2186 59.7314 11.3914 59.7314 10.1812C59.7314 9.30745 59.624 8.58952 59.4092 8.02734C59.1943 7.46159 58.7772 7.17871 58.1577 7.17871C57.5884 7.17871 57.1712 7.44727 56.9062 7.98438C56.6449 8.5179 56.5142 9.30566 56.5142 10.3477C56.5142 11.1318 56.5983 11.762 56.7666 12.2383C57.0244 12.9652 57.4648 13.3286 58.0879 13.3286Z" fill="white"/>
</svg>
