<svg width="41" height="20" viewBox="0 0 41 20" fill="none" xmlns="http://www.w3.org/2000/svg">
<path fill-rule="evenodd" clip-rule="evenodd" d="M0 3C0 1.34315 1.34315 0 3 0H38C39.6569 0 41 1.34315 41 3V17C41 18.6569 39.6569 20 38 20H3C1.34315 20 0 18.6569 0 17V3Z" fill="#4065B4"/>
<path d="M7.03564 11.5562C7.08577 11.9178 7.18424 12.1882 7.33105 12.3672C7.59961 12.693 8.05973 12.856 8.71143 12.856C9.10173 12.856 9.41862 12.813 9.66211 12.7271C10.124 12.5623 10.355 12.2562 10.355 11.8086C10.355 11.5472 10.2404 11.3449 10.0112 11.2017C9.78206 11.062 9.4222 10.9385 8.93164 10.8311L8.09375 10.6431C7.27018 10.4569 6.70085 10.2546 6.38574 10.0361C5.85221 9.6709 5.58545 9.09977 5.58545 8.32275C5.58545 7.61377 5.84326 7.02474 6.35889 6.55566C6.87451 6.08659 7.63184 5.85205 8.63086 5.85205C9.46517 5.85205 10.1759 6.07406 10.7632 6.51807C11.354 6.9585 11.6637 7.59945 11.6924 8.44092H10.1025C10.0739 7.96468 9.86621 7.6263 9.47949 7.42578C9.22168 7.29329 8.9012 7.22705 8.51807 7.22705C8.09196 7.22705 7.75179 7.31299 7.49756 7.48486C7.24333 7.65674 7.11621 7.89665 7.11621 8.20459C7.11621 8.48747 7.24154 8.69873 7.49219 8.83838C7.65332 8.93148 7.99707 9.04069 8.52344 9.16602L9.8877 9.49365C10.4857 9.63688 10.9368 9.82845 11.2412 10.0684C11.7139 10.4408 11.9502 10.9797 11.9502 11.6851C11.9502 12.4084 11.6727 13.0099 11.1177 13.4897C10.5662 13.966 9.78564 14.2041 8.77588 14.2041C7.74463 14.2041 6.93359 13.9696 6.34277 13.5005C5.75195 13.0278 5.45654 12.3797 5.45654 11.5562H7.03564ZM16.2793 7.99512C16.641 7.99512 16.9686 8.05778 17.2622 8.18311C17.5594 8.30843 17.8029 8.5 17.9927 8.75781C18.1538 8.97624 18.2523 9.20182 18.2881 9.43457C18.3239 9.66374 18.3418 10.0397 18.3418 10.5625V14H16.7788V10.439C16.7788 10.1239 16.7251 9.86963 16.6177 9.67627C16.478 9.40413 16.2131 9.26807 15.8228 9.26807C15.4181 9.26807 15.1102 9.40413 14.8989 9.67627C14.6912 9.94482 14.5874 10.3298 14.5874 10.8311V14H13.062V6.10986H14.5874V8.9082C14.8094 8.56803 15.0654 8.33171 15.3555 8.19922C15.6491 8.06315 15.957 7.99512 16.2793 7.99512ZM23.0039 11.1533C22.9072 11.2142 22.8088 11.2643 22.7085 11.3037C22.6118 11.3395 22.4775 11.3735 22.3057 11.4058L21.9619 11.4702C21.6396 11.5275 21.4087 11.5973 21.269 11.6797C21.0327 11.8193 20.9146 12.036 20.9146 12.3296C20.9146 12.591 20.9862 12.7808 21.1294 12.8989C21.2762 13.0135 21.4535 13.0708 21.6611 13.0708C21.9906 13.0708 22.2931 12.9741 22.5688 12.7808C22.8481 12.5874 22.9932 12.2347 23.0039 11.7227V11.1533ZM22.0747 10.439C22.3576 10.4032 22.5599 10.3584 22.6816 10.3047C22.9001 10.2116 23.0093 10.0666 23.0093 9.86963C23.0093 9.62972 22.9251 9.46501 22.7568 9.37549C22.5921 9.28239 22.3486 9.23584 22.0264 9.23584C21.6647 9.23584 21.4087 9.32536 21.2583 9.50439C21.1509 9.63688 21.0793 9.81592 21.0435 10.0415H19.5664C19.5986 9.52946 19.7419 9.10872 19.9961 8.7793C20.4007 8.26367 21.0954 8.00586 22.0801 8.00586C22.721 8.00586 23.2904 8.13298 23.7881 8.38721C24.2858 8.64144 24.5347 9.12126 24.5347 9.82666V12.5122C24.5347 12.6984 24.5382 12.924 24.5454 13.189C24.5562 13.3895 24.5866 13.5256 24.6367 13.5972C24.6868 13.6688 24.762 13.7279 24.8623 13.7744V14H23.1973C23.1507 13.8818 23.1185 13.7708 23.1006 13.667C23.0827 13.5632 23.0684 13.445 23.0576 13.3125C22.8464 13.5417 22.6029 13.7368 22.3271 13.8979C21.9977 14.0877 21.6253 14.1826 21.21 14.1826C20.68 14.1826 20.2414 14.0322 19.894 13.7314C19.5503 13.4271 19.3784 12.9974 19.3784 12.4424C19.3784 11.7227 19.6559 11.2017 20.2109 10.8794C20.5153 10.7039 20.9629 10.5786 21.5537 10.5034L22.0747 10.439ZM29.0786 8.00586C29.1073 8.00586 29.1305 8.00765 29.1484 8.01123C29.1699 8.01123 29.2147 8.01302 29.2827 8.0166V9.58496C29.186 9.57422 29.1001 9.56706 29.0249 9.56348C28.9497 9.5599 28.8888 9.55811 28.8423 9.55811C28.2264 9.55811 27.8128 9.75863 27.6016 10.1597C27.4834 10.3853 27.4243 10.7326 27.4243 11.2017V14H25.8828V8.14551H27.3438V9.16602C27.5801 8.77572 27.786 8.50895 27.9614 8.36572C28.2479 8.12581 28.6203 8.00586 29.0786 8.00586ZM32.4946 9.25195C32.1401 9.25195 31.8644 9.36296 31.6675 9.58496C31.4741 9.80697 31.3524 10.1077 31.3022 10.4873H33.6816C33.6566 10.0827 33.533 9.77653 33.311 9.56885C33.0926 9.35758 32.8205 9.25195 32.4946 9.25195ZM32.4946 7.98975C32.9816 7.98975 33.4202 8.08105 33.8105 8.26367C34.2008 8.44629 34.5231 8.73454 34.7773 9.12842C35.0065 9.47575 35.1551 9.87858 35.2231 10.3369C35.2625 10.6055 35.2786 10.9922 35.2715 11.4971H31.2646C31.2861 12.0843 31.4705 12.4961 31.8179 12.7324C32.0291 12.8792 32.2834 12.9526 32.5806 12.9526C32.8957 12.9526 33.1517 12.8631 33.3486 12.6841C33.4561 12.5874 33.5509 12.4531 33.6333 12.2812H35.1963C35.1569 12.6286 34.9761 12.9813 34.6538 13.3394C34.1525 13.9087 33.4507 14.1934 32.5483 14.1934C31.8035 14.1934 31.1465 13.9535 30.5771 13.4736C30.0078 12.9938 29.7231 12.2132 29.7231 11.1318C29.7231 10.1185 29.9792 9.34147 30.4912 8.80078C31.0068 8.26009 31.6746 7.98975 32.4946 7.98975Z" fill="white"/>
</svg>
