<svg width="27" height="20" viewBox="0 0 27 20" fill="none" xmlns="http://www.w3.org/2000/svg">
<path fill-rule="evenodd" clip-rule="evenodd" d="M0 3C0 1.34315 1.34315 0 3 0H24C25.6569 0 27 1.34315 27 3V17C27 18.6569 25.6569 20 24 20H3C1.34315 20 0 18.6569 0 17V3Z" fill="#EB5E4C"/>
<path fill-rule="evenodd" clip-rule="evenodd" d="M10.3783 15.5926C7.44499 15.5926 5.08203 13.2296 5.08203 10.2963C5.08203 7.36296 7.44499 5 10.3783 5C11.845 5 12.9857 5.48889 13.9635 6.38519L12.4968 7.77037C12.0894 7.36296 11.4376 6.95556 10.3783 6.95556C8.58573 6.95556 7.11907 8.42222 7.11907 10.2963C7.11907 12.1704 8.58573 13.637 10.3783 13.637C12.4968 13.637 13.2302 12.0889 13.3931 11.3556H10.3783V9.56296H15.3487C15.4302 9.80741 15.4302 10.1333 15.4302 10.4593C15.4302 13.4741 13.3931 15.5926 10.3783 15.5926Z" fill="white"/>
<path fill-rule="evenodd" clip-rule="evenodd" d="M21.8677 11.0705H20.401V12.6186H18.8528V11.0705H17.3047V9.60381H18.8528V8.05566H20.401V9.60381H21.8677V11.0705Z" fill="white"/>
</svg>
