<svg width="20" height="20" viewBox="0 0 20 20" fill="none" xmlns="http://www.w3.org/2000/svg">
<path fill-rule="evenodd" clip-rule="evenodd" d="M0 3C0 1.34315 1.34315 0 3 0H17C18.6569 0 20 1.34315 20 3V17C20 18.6569 18.6569 20 17 20H3C1.34315 20 0 18.6569 0 17V3Z" fill="#238CC8"/>
<path fill-rule="evenodd" clip-rule="evenodd" d="M5.45714 4C4.6 4 4 4.50704 4 5.26761C4 6.02817 4.6 6.53521 5.45714 6.53521C6.4 6.53521 6.91429 6.02817 6.91429 5.26761C6.82857 4.50704 6.31429 4 5.45714 4ZM4.25714 15.831H6.57143V7.6338H4.25714C4.25714 7.71831 4.25714 15.831 4.25714 15.831ZM13.1714 7.38028C11.8 7.38028 10.8571 8.05634 10.5143 8.56338L10.3429 7.71831H8.28571V15.9155H10.6V11.0141C10.6 10.7606 10.6 10.507 10.6857 10.4225C10.8571 10 11.4571 9.49296 12.1429 9.49296C13.0857 9.49296 13.6857 10.169 13.6857 11.2676V16H16V10.9296C16 8.39437 14.8 7.38028 13.1714 7.38028Z" fill="white"/>
</svg>
