<svg width="64" height="51" viewBox="0 0 64 51" fill="none" xmlns="http://www.w3.org/2000/svg">
<path d="M15.9144 0C12.0357 0 8.67023 1.47333 5.81818 4.42C3.08021 7.36667 1.71123 10.5967 1.71123 14.11C1.71123 16.9433 2.56684 19.6067 4.27807 22.1C6.10339 24.5933 8.04278 26.18 10.0963 26.86C9.1836 30.7133 5.81818 34.7367 0 38.93L5.47594 51C12.549 47.7133 18.4242 42.84 23.1016 36.38C27.893 29.8067 30.2888 23.2333 30.2888 16.66C30.2888 11.7867 28.8627 7.82 26.0107 4.76C23.2727 1.58667 19.9073 0 15.9144 0ZM49.7968 0C45.918 0 42.5526 1.47333 39.7005 4.42C36.9626 7.36667 35.5936 10.5967 35.5936 14.11C35.5936 16.9433 36.4492 19.6067 38.1604 22.1C39.8717 24.5933 41.8111 26.18 43.9786 26.86C43.4082 29.1267 42.2103 31.2233 40.385 33.15C38.6738 35.0767 36.4492 37.0033 33.7112 38.93L39.3583 51C46.3173 47.8267 52.1355 42.9533 56.8128 36.38C61.6043 29.8067 64 23.2333 64 16.66C64 11.7867 62.631 7.82 59.893 4.76C57.1551 1.58667 53.7897 0 49.7968 0Z" fill="white"/>
</svg>
