<svg width="59" height="20" viewBox="0 0 59 20" fill="none" xmlns="http://www.w3.org/2000/svg">
<path fill-rule="evenodd" clip-rule="evenodd" d="M0 3C0 1.34315 1.34315 0 3 0H56C57.6569 0 59 1.34315 59 3V17C59 18.6569 57.6569 20 56 20H3C1.34315 20 0 18.6569 0 17V3Z" fill="#55ACEE"/>
<path d="M29.5903 6.08301V7.48486H27.2217V14H25.5566V7.48486H23.1772V6.08301H29.5903ZM33.1997 8.14551H34.752L35.6436 12.3618L36.5566 8.14551H38.1519L36.4546 14H34.8809L33.9624 9.73535L33.0332 14H31.4434L29.7998 8.14551H31.4434L32.3564 12.3457L33.1997 8.14551ZM41.3101 9.25195C40.9556 9.25195 40.6799 9.36296 40.4829 9.58496C40.2896 9.80697 40.1678 10.1077 40.1177 10.4873H42.4971C42.472 10.0827 42.3485 9.77653 42.1265 9.56885C41.908 9.35758 41.6359 9.25195 41.3101 9.25195ZM41.3101 7.98975C41.797 7.98975 42.2357 8.08105 42.626 8.26367C43.0163 8.44629 43.3385 8.73454 43.5928 9.12842C43.8219 9.47575 43.9705 9.87858 44.0386 10.3369C44.078 10.6055 44.0941 10.9922 44.0869 11.4971H40.0801C40.1016 12.0843 40.286 12.4961 40.6333 12.7324C40.8446 12.8792 41.0988 12.9526 41.396 12.9526C41.7111 12.9526 41.9671 12.8631 42.1641 12.6841C42.2715 12.5874 42.3664 12.4531 42.4487 12.2812H44.0117C43.9723 12.6286 43.7915 12.9813 43.4692 13.3394C42.9679 13.9087 42.2661 14.1934 41.3638 14.1934C40.619 14.1934 39.9619 13.9535 39.3926 13.4736C38.8232 12.9938 38.5386 12.2132 38.5386 11.1318C38.5386 10.1185 38.7946 9.34147 39.3066 8.80078C39.8223 8.26009 40.4901 7.98975 41.3101 7.98975ZM47.4331 9.25195C47.0786 9.25195 46.8029 9.36296 46.606 9.58496C46.4126 9.80697 46.2909 10.1077 46.2407 10.4873H48.6201C48.5951 10.0827 48.4715 9.77653 48.2495 9.56885C48.0311 9.35758 47.759 9.25195 47.4331 9.25195ZM47.4331 7.98975C47.9201 7.98975 48.3587 8.08105 48.749 8.26367C49.1393 8.44629 49.4616 8.73454 49.7158 9.12842C49.945 9.47575 50.0936 9.87858 50.1616 10.3369C50.201 10.6055 50.2171 10.9922 50.21 11.4971H46.2031C46.2246 12.0843 46.409 12.4961 46.7563 12.7324C46.9676 12.8792 47.2218 12.9526 47.519 12.9526C47.8341 12.9526 48.0902 12.8631 48.2871 12.6841C48.3945 12.5874 48.4894 12.4531 48.5718 12.2812H50.1348C50.0954 12.6286 49.9146 12.9813 49.5923 13.3394C49.091 13.9087 48.3892 14.1934 47.4868 14.1934C46.742 14.1934 46.085 13.9535 45.5156 13.4736C44.9463 12.9938 44.6616 12.2132 44.6616 11.1318C44.6616 10.1185 44.9176 9.34147 45.4297 8.80078C45.9453 8.26009 46.6131 7.98975 47.4331 7.98975ZM50.645 9.28955V8.19922H51.4614V6.56641H52.9761V8.19922H53.9268V9.28955H52.9761V12.3833C52.9761 12.6232 53.0065 12.7736 53.0674 12.8345C53.1283 12.8918 53.3145 12.9204 53.626 12.9204C53.6725 12.9204 53.7209 12.9204 53.771 12.9204C53.8247 12.9168 53.8766 12.9132 53.9268 12.9097V14.0537L53.2017 14.0806C52.4784 14.1056 51.9842 13.9803 51.7192 13.7046C51.5474 13.5291 51.4614 13.2588 51.4614 12.8936V9.28955H50.645Z" fill="white"/>
<path fill-rule="evenodd" clip-rule="evenodd" d="M16.5946 7.5473C16.5946 7.63514 16.5946 7.81081 16.5946 7.89865C16.5946 11.4122 13.9595 15.4527 9.04054 15.4527C7.5473 15.4527 6.14189 15.0135 5 14.223C5.17568 14.223 5.43919 14.223 5.61486 14.223C6.84459 14.223 7.98649 13.7838 8.9527 13.0811C7.81081 13.0811 6.84459 12.2905 6.49324 11.2365C6.66892 11.2365 6.84459 11.3243 7.02027 11.3243C7.28378 11.3243 7.45946 11.3243 7.72297 11.2365C6.49324 10.973 5.61486 9.91892 5.61486 8.60135C5.96622 8.77703 6.40541 8.9527 6.84459 8.9527C6.14189 8.51351 5.7027 7.63514 5.7027 6.75676C5.7027 6.22973 5.79054 5.79054 6.05405 5.43919C7.37162 7.02027 9.30405 8.07432 11.5 8.25C11.4122 8.07432 11.4122 7.81081 11.4122 7.63514C11.4122 6.14189 12.6419 5 14.0473 5C14.8378 5 15.5405 5.35135 15.9797 5.87838C16.5946 5.79054 17.1216 5.52703 17.6486 5.26351C17.473 5.87838 17.0338 6.40541 16.5068 6.75676C17.0338 6.66892 17.5608 6.58108 18 6.31757C17.5608 6.66892 17.1216 7.19595 16.5946 7.5473Z" fill="white"/>
</svg>
